<svg width="217" height="35" viewBox="0 0 217 35" fill="none" xmlns="http://www.w3.org/2000/svg">
<path d="M71.2819 22.3307C71.542 22.3136 71.8291 22.2833 72.0858 22.3374C72.4958 22.4238 72.8851 22.7047 73.1134 23.053C73.3534 23.4197 73.4026 23.8724 73.2858 24.2909C73.126 24.8622 72.7439 25.1373 72.2643 25.421C72.0343 25.4427 71.782 25.4773 71.5514 25.4596C71.4993 25.4556 71.4476 25.4488 71.3963 25.4392C71.3449 25.4298 71.2942 25.4175 71.2442 25.4026C71.1941 25.3877 71.145 25.3701 71.0969 25.35C71.0487 25.3298 71.0017 25.3072 70.956 25.282C70.9102 25.2569 70.866 25.2294 70.8231 25.1995C70.7802 25.1696 70.7391 25.1376 70.6997 25.1034C70.6602 25.0692 70.6226 25.0329 70.5872 24.9947C70.5516 24.9565 70.5182 24.9165 70.4868 24.8747C70.2323 24.5381 70.1539 24.1295 70.2277 23.7164C70.35 23.0328 70.7363 22.6884 71.2819 22.3307Z" fill="#665130"/>
<path d="M146.142 9.25195C146.736 9.41743 147.438 10.3072 147.737 10.8275C148.384 11.9542 148.653 13.492 148.304 14.7557C147.98 15.9312 147.306 16.7062 146.259 17.2907C145.771 17.1782 145.386 16.892 145.027 16.5528C144.292 15.8588 144.033 14.8973 144.012 13.9087C143.972 12.0711 144.899 10.526 146.142 9.25195Z" fill="#665130"/>
<path d="M146.173 10.3418C146.261 10.4048 146.348 10.4693 146.428 10.5423C147.129 11.1816 147.508 12.2551 147.573 13.1817C147.657 14.3749 147.285 15.2557 146.516 16.1423C146.578 14.7944 146.639 13.4959 146.402 12.1611C145.598 12.979 145.615 14.9038 145.622 15.9838C145.294 15.4338 144.996 14.8786 144.906 14.237C144.705 12.7739 145.321 11.4875 146.173 10.3418Z" fill="#EEEAE7"/>
<path d="M108.554 0.433594C109.442 0.8794 110.314 2.17925 110.832 3.01616C112.538 5.77678 113.18 8.74135 112.419 11.9326C112.986 11.0933 113.675 10.2468 114.395 9.53368C114.672 9.25916 115.336 8.80448 115.482 8.47264C115.676 8.03444 115.487 7.24539 115.609 6.74271C115.709 6.3335 115.907 5.96469 116.29 5.75994C116.75 5.51397 117.336 5.53536 117.82 5.69979C117.89 5.72394 117.959 5.75159 118.026 5.78268C118.093 5.81376 118.159 5.84812 118.222 5.88576C118.286 5.92348 118.348 5.96432 118.408 6.00815C118.467 6.05212 118.525 6.09893 118.58 6.14865C118.634 6.19829 118.687 6.25054 118.736 6.30548C118.786 6.36056 118.833 6.41788 118.877 6.47751C118.921 6.53721 118.962 6.59893 118.999 6.66273C119.037 6.72661 119.071 6.7922 119.102 6.85936C119.277 7.24159 119.319 7.66742 119.145 8.05836C118.926 8.55314 118.264 8.9824 117.759 9.15071C117.278 9.31096 116.805 9.08474 116.39 8.86046L116.271 8.79584C114.659 10.3543 113.123 12.1289 111.936 14.0371C110.94 15.6385 110.098 17.3267 109.055 18.9009C109.141 19.634 108.938 20.4636 108.825 21.1926C111.713 17.3006 113.636 13.4994 118.483 11.6923C122.358 10.248 126.314 11.2787 129.908 12.9436C128.815 15.8903 126.984 18.4526 124.656 20.5433C128.625 20.5509 132.611 20.6325 136.576 20.4297C142.364 20.1333 148.036 18.9722 152.081 14.4895C152.158 12.9992 152.546 11.6821 153.342 10.4079C154.843 8.00112 157.214 6.69128 159.915 6.08276C160.028 6.25076 160.064 6.37733 160.074 6.5756C160.187 8.84443 159.161 11.021 157.657 12.6753C156.288 14.1814 154.604 15.0124 152.561 15.1055C151.895 15.9231 150.945 16.839 149.998 17.2954C151.592 16.9556 153.183 16.7229 154.798 16.5147C155.798 15.9524 156.445 15.2777 157.644 15.0531C159.397 14.7244 161.433 15.156 162.89 16.1943C163.405 16.5618 164.124 17.2284 164.229 17.8761C164.201 17.9474 164.2 17.9617 164.143 18.0294C163.279 19.0468 161.194 19.5679 159.932 19.6482C158.23 19.7565 156.952 19.4223 155.675 18.2957C155.424 18.0747 155.233 17.794 154.983 17.5803C154.953 17.5558 154.923 17.5319 154.895 17.5077C152.82 17.558 150.636 17.9163 148.683 18.63C146.925 19.2725 145.317 20.0499 143.476 20.4777L143.553 20.4877C146.232 20.8175 149.096 20.5356 151.797 20.5491L171.092 20.586C173.809 20.5777 176.525 20.5832 179.242 20.6025C180.897 20.6181 182.66 20.7753 184.298 20.5517C185.361 20.4066 186.348 19.749 187.175 19.0995C187.916 18.5179 189.303 17.2846 189.427 16.2979C189.397 16.181 189.419 16.2192 189.349 16.1286C188.996 15.6687 188.594 15.1824 188.403 14.6266C187.737 12.6808 188.718 10.8191 189.811 9.2813C190.071 8.91577 190.462 8.54971 190.641 8.14662C190.659 8.10681 190.675 8.06656 190.693 8.02646L190.742 8.05792C191.571 8.57692 192.165 9.77577 192.434 10.6875C192.834 12.05 192.842 13.6094 192.134 14.8747C191.661 15.7156 191.036 16.2407 190.11 16.4942C190.095 16.5351 190.081 16.5761 190.067 16.6166C189.44 18.2836 187.899 19.7847 186.308 20.5277C189.092 20.2758 191.289 18.8757 193.278 16.981C193.966 16.325 195.452 14.911 195.473 13.9665C195.558 13.602 195.264 12.8975 195.201 12.5077C194.998 11.2658 195.001 10.2135 195.764 9.16017C196.459 8.20058 198.22 6.68964 199.429 6.54795C199.613 6.52625 199.72 6.52774 199.863 6.65997C200.203 6.97668 200.247 7.77624 200.271 8.21549C200.361 9.95846 200.148 11.7717 198.915 13.1077C198.128 13.9622 197.317 14.2859 196.177 14.3436C195.215 16.3607 193.03 18.7184 190.944 19.5225C193.715 19.2532 199.215 17.2776 201.251 15.5468C201.695 15.1696 201.836 13.1179 203.094 11.9294C204.436 10.6589 206.34 10.2255 208.141 10.2754C208.689 10.2907 209.491 10.2996 209.89 10.7217C209.964 10.9187 209.999 11.0537 209.954 11.2648C209.681 12.5645 208.038 14.3225 207.001 15.0552C205.444 16.1525 203.83 16.2707 201.995 15.949C200.436 17.1853 198.345 18.2243 196.404 18.6511C199.393 18.611 201.91 18.6113 204.89 19.053C206.087 18.0366 207.519 17.3414 209.088 17.1482C211.423 16.8608 213.604 17.7292 215.42 19.1499C215.95 19.5638 216.912 20.3116 217 21.0222C216.927 21.136 216.874 21.2232 216.77 21.3116C215.086 22.7434 212.376 23.1741 210.25 22.9226C208.343 22.697 206.717 22.0133 205.435 20.5752C205.245 20.3625 205.138 20.1098 204.962 19.894L204.898 19.8177C200.856 19.1811 196.919 19.0878 192.91 19.9642C194.555 20.1944 196.287 20.733 197.742 21.5376C198.603 21.3894 199.331 21.3207 200.192 21.5182C201.869 21.9033 203.221 23.1491 204.096 24.5894C204.504 25.2626 205.366 26.8146 205.179 27.5911C205.134 27.6254 205.07 27.6801 205.015 27.706C204.35 28.0212 203.094 27.8294 202.406 27.629C200.647 27.1173 198.611 25.6515 197.898 23.9185C197.695 23.4234 197.614 22.6275 197.371 22.2203C197.353 22.1908 197.334 22.1625 197.314 22.1335C195.726 21.122 193.065 20.4475 191.194 20.5059C190.047 20.5418 188.855 20.8077 187.72 20.9857C188.234 21.1542 188.613 21.4618 189.002 21.8235L188.954 21.8295C189.447 21.9281 189.949 22.011 190.404 22.2367C191.829 22.9468 192.888 24.3674 193.357 25.8703C193.541 26.4583 193.766 27.61 193.473 28.173C192.561 28.0795 191.758 27.8714 190.95 27.4276C189.645 26.7113 188.917 25.2876 188.605 23.8751C188.494 23.3768 188.491 22.8687 188.338 22.3789C188.332 22.3558 188.323 22.3331 188.316 22.3104C188.31 22.296 188.307 22.2806 188.3 22.2671C188.009 21.7373 187.262 21.5249 186.734 21.3288C182.531 21.8251 178.088 21.5476 173.853 21.5438C167.052 21.5373 160.245 21.595 153.444 21.5069C154.466 21.9099 155.33 22.5858 156.053 23.4075C156.611 24.0429 157.419 25.1941 157.366 26.0787C156.304 26.5139 154.791 26.5176 153.685 26.2646C152.443 25.9807 150.918 25.1237 150.338 23.9338C150.107 23.4634 150.026 22.9497 149.736 22.5048C149.723 22.4843 149.708 22.4644 149.695 22.4441C149.663 22.4117 149.637 22.3765 149.602 22.3468C148.68 21.5157 147.172 21.468 146.009 21.4642C146.564 21.9893 147.106 22.8218 147.301 23.5671C147.409 23.9877 147.439 24.4756 147.189 24.8543C146.946 25.2234 146.518 25.375 146.102 25.4505C145.56 25.5486 145.035 25.4032 144.595 25.0745C144.269 24.8299 143.994 24.4711 143.972 24.0504C143.894 22.648 145.333 22.512 145.651 22.129C145.581 22.0302 145.595 22.041 145.492 21.9427C145.142 21.6021 144.319 21.5202 143.85 21.4822C141.893 21.3234 139.795 21.4939 137.823 21.4835C133.089 21.4501 128.355 21.443 123.621 21.462C121.023 23.2569 119.16 24.1149 115.919 24.101C117.817 25.0172 120.855 26.8343 122.908 25.6055C123.502 25.2503 123.839 24.549 124.557 24.3689C124.989 24.2603 125.468 24.4013 125.839 24.6321C126.21 24.8634 126.486 25.2152 126.568 25.6505C126.695 26.3261 126.401 27.0403 126.021 27.5883C125.239 28.7147 123.913 29.4083 122.581 29.6278C118.558 30.291 114.441 27.1066 111.367 24.9003C111.595 25.6707 111.766 26.4186 111.793 27.2253C111.889 30.1245 110.514 32.5239 108.59 34.5681C107.092 33.0466 106.236 31.5844 105.625 29.538C105.28 27.8339 105.348 26.4625 105.916 24.8197C105.275 25.3015 104.627 25.773 103.97 26.2342C101.29 28.0813 97.9603 30.2645 94.5471 29.5988C93.3367 29.3627 92.0544 28.705 91.3623 27.6557C90.9547 27.038 90.6781 26.2037 90.8552 25.4633C90.9546 25.0472 91.1853 24.7108 91.5683 24.5113C93.1861 23.6684 93.9197 25.5143 95.2583 25.901C97.0781 26.4271 99.65 24.9954 101.231 24.1386C98.1087 24.1359 95.9269 23.0973 93.4025 21.4276L68.1771 21.4548C67.4851 23.0901 66.5885 24.5277 65.0542 25.4953C63.8721 26.2409 61.9999 26.7002 60.6234 26.3421C60.3168 26.2623 60.0425 26.1242 59.888 25.8373C59.7765 25.6301 59.7874 25.3707 59.8591 25.1496C60.4328 23.3791 62.8238 22.1744 64.3838 21.4227C57.0779 21.5152 49.7653 21.4447 42.4591 21.4498L34.9383 21.4539C33.3145 21.4539 31.6573 21.5117 30.0407 21.3504C29.5783 21.5971 29.1336 21.8847 28.6855 22.1571C28.9258 23.1377 28.8327 23.9124 28.3704 24.8165C27.7019 26.1244 26.3045 27.2892 24.9064 27.7339C24.5059 27.8614 23.9535 27.9642 23.5688 27.7619C23.2907 27.0222 23.7913 25.6777 24.049 24.9314C24.9914 22.2007 26.6542 22.2384 28.9065 21.1549C25.5482 20.6627 22.8911 20.6964 19.6979 22.0394C19.6434 22.387 19.5585 22.727 19.4432 23.0595C18.8509 24.8222 17.5284 26.3981 15.8565 27.223C14.9365 27.6771 13.0092 28.2088 12.0147 27.8131C11.8206 27.7357 11.7138 27.6226 11.6619 27.4202C11.4548 26.6154 12.3845 25.2347 12.8157 24.6012C13.9564 22.9251 15.6246 21.4559 17.7303 21.3097C18.2367 21.2745 18.7724 21.4427 19.2498 21.3922C19.8839 21.325 20.6297 20.7982 21.2588 20.6142C21.9405 20.4146 22.6741 20.3082 23.3727 20.1763C19.4218 19.2257 16.3189 19.1343 12.3322 19.817C12.2196 19.9932 12.1007 20.1651 11.9755 20.3327C10.8358 21.8392 8.88639 22.6948 7.05174 22.9307C6.89682 22.9506 6.74147 22.9668 6.58573 22.9791C6.43 22.9914 6.27405 22.9998 6.11794 23.0045C5.96176 23.0092 5.80566 23.01 5.64948 23.0069C5.4933 23.0039 5.33727 22.9972 5.18139 22.9864C5.02551 22.9757 4.87008 22.9612 4.71494 22.943C4.55981 22.9247 4.40519 22.9026 4.25117 22.8766C4.09716 22.8508 3.94381 22.8211 3.79121 22.7876C3.63861 22.7542 3.4869 22.7171 3.33616 22.6762C3.18542 22.6354 3.03572 22.5909 2.88707 22.5426C2.73849 22.4944 2.59111 22.4425 2.44506 22.3871C2.29902 22.3317 2.15439 22.2727 2.01125 22.2102C1.86811 22.1477 1.72653 22.0817 1.5866 22.0122C1.44666 21.9427 1.30852 21.8699 1.17216 21.7936C1.0358 21.7174 0.901381 21.6378 0.768971 21.5549C0.636488 21.472 0.506165 21.3859 0.377928 21.2967C0.249692 21.2075 0.123691 21.1151 0 21.0196C0.280391 20.6496 0.568234 20.2897 0.89676 19.9608C2.58641 18.2694 4.7753 17.177 7.19271 17.1909C9.0565 17.2016 10.7947 17.7997 12.1071 19.1437C15.0359 18.6584 17.7221 18.5307 20.667 18.9414C18.8251 17.9113 17.0325 16.7935 15.2019 15.7427L15.1375 15.7612C13.4944 16.2281 11.9391 16.0751 10.4383 15.2234C9.22602 14.5353 7.57258 12.8601 7.26395 11.4628C7.20635 11.202 7.20054 10.9616 7.36961 10.7401C7.62139 10.4104 8.12912 10.2828 8.52277 10.234C10.3103 10.0124 12.4202 10.5826 13.8314 11.7041C14.9242 12.5728 15.4777 13.6353 15.6436 15.0069C19.0929 17.4037 22.8051 19.2745 26.9018 20.2372C24.4117 18.8632 22.4127 17.1483 20.7661 14.8254C20.2724 14.6928 19.8055 14.4247 19.404 14.1109C17.941 12.9679 17.0644 11.301 16.8724 9.46086C16.8014 8.7819 16.7515 7.23585 17.1794 6.71759C17.6167 6.60959 17.9722 6.66959 18.378 6.84848C19.7929 7.4722 21.006 8.80716 21.5416 10.2489C22.0697 11.6696 21.986 13.1044 21.3518 14.4693C21.4805 14.66 21.615 14.8465 21.7555 15.0285C23.4685 17.2847 26.0353 19.3745 28.7636 20.1957C29.5602 20.4354 30.4074 20.5253 31.2297 20.6387C30.3268 20.0356 29.3883 19.4269 28.5744 18.7057C28.0303 18.2237 27.5726 17.653 27.088 17.1134C25.8394 15.7238 24.7604 14.5948 24.6525 12.6255C24.5547 10.8367 25.3003 9.20459 26.4642 7.88439C27.5204 9.15801 28.3964 10.7615 28.6451 12.4101C28.883 13.9882 28.5119 15.2062 27.5796 16.4749C27.9954 17.0559 28.4143 17.5902 28.9369 18.0797C30.0212 19.0951 31.4676 20.1594 32.9445 20.4471C34.4525 20.7406 36.2479 20.5665 37.7875 20.5658L46.6425 20.5567C53.2853 20.5852 59.9278 20.5752 66.5703 20.5267C69.2641 20.5132 71.9651 20.6038 74.6573 20.5095C70.6721 19.5819 66.7996 18.3485 62.7992 17.4809C60.3023 18.7969 57.6483 20.0288 54.744 19.4812C54.2716 19.3922 53.1371 19.1822 52.8595 18.7731C52.8476 18.5799 52.8411 18.3852 52.8973 18.1974C53.1926 17.2126 54.5678 16.2821 55.4306 15.8346C57.2448 14.8931 59.2066 14.8312 61.0537 15.698C61.7334 16.0169 62.385 16.4275 63.0968 16.6709C64.4461 17.1324 65.8839 17.3606 67.251 17.7992C66.3891 17.1807 65.6029 16.4655 64.7051 15.8969C62.8003 14.6904 60.8228 13.8435 59.197 12.2162C57.781 10.7988 56.7113 8.81939 56.7016 6.77647C56.8462 6.54668 56.9178 6.47155 57.2008 6.43025C58.5784 6.2296 60.5143 7.10422 61.6026 7.90214C63.2841 9.13505 65.0786 13.1243 65.3846 15.1978L65.4021 15.3222C67.2755 17.0527 69.1945 18.3826 71.6768 19.048C71.6352 18.9483 71.59 18.851 71.5476 18.7517C70.7242 16.8274 68.8378 16.4184 68.8664 13.7226C68.8827 12.18 69.7725 10.8036 70.8274 9.74782C71.7412 10.6935 72.3998 12.0731 72.6697 13.3527C73.0091 14.9606 72.7744 16.2589 71.8745 17.6213C72.1602 18.1406 72.4347 18.6658 72.6979 19.1969C74.3474 19.6666 76.0532 20.2358 77.7549 20.4563C79.5772 20.6924 81.549 20.5408 83.3893 20.5289C86.387 20.5122 89.3848 20.5135 92.3825 20.533C90.0691 18.3525 88.5208 15.8855 87.3148 12.9473C89.7247 11.3894 93.0034 10.711 95.8345 11.0826C99.7714 11.5995 103.1 13.8762 105.476 16.9993C106.53 18.3853 107.41 19.8989 108.464 21.2884C108.331 20.5699 108.261 19.7378 108.036 19.0501C107.625 17.7925 105.715 14.6662 104.898 13.4704C104.315 12.6179 101.795 9.20109 100.949 9.02265C100.491 8.92612 99.9924 9.3199 99.4706 9.1923C99.0322 9.08504 98.6496 8.72495 98.4166 8.35107C98.1031 7.84824 97.9971 7.21639 98.152 6.64224C98.2693 6.20731 98.5462 5.83865 98.9449 5.62428C99.4286 5.3643 100.055 5.30489 100.572 5.49608C101.062 5.67728 101.437 6.05026 101.631 6.53468C101.864 7.11771 101.739 7.54965 101.487 8.08796L101.428 8.21333C102.662 9.41188 103.777 10.6608 104.838 12.0152C104.591 11.1315 104.453 10.2606 104.442 9.34107C104.402 5.95605 106.277 2.79426 108.554 0.433594Z" fill="#665130"/>
<path d="M99.5173 6.32919C99.7147 6.31451 99.9267 6.30184 100.123 6.32621C100.365 6.35595 100.601 6.48811 100.747 6.68302C100.98 6.99257 100.935 7.33306 100.884 7.69308C100.765 7.68339 100.622 7.67794 100.511 7.63456C100.141 7.49078 99.9768 6.96626 99.8458 6.62481C99.8049 6.51814 99.6154 6.48729 99.5173 6.32919Z" fill="#EEEAE7"/>
<path d="M189.717 22.9407C189.753 22.9396 189.787 22.9368 189.823 22.9377C190.281 22.9489 191.002 23.6389 191.302 23.9711C192.054 24.8069 192.776 26.1364 192.711 27.2896C191.962 26.8175 191.174 26.4786 190.433 25.9498C190.391 25.8011 190.42 25.8577 190.338 25.7317C189.927 25.0986 189.652 24.3715 189.189 23.7776C189.263 23.8133 189.328 23.8412 189.396 23.8844C189.916 24.2115 191.049 25.2651 191.213 25.8692C191.241 25.7008 191.278 25.5046 191.254 25.3337C191.138 24.4981 190.362 23.4449 189.717 22.9407Z" fill="#EEEAE7"/>
<path d="M27.0305 22.6465C27.2703 22.91 25.8996 24.5564 25.8902 25.1522L26.043 25.2774C26.8417 24.9306 27.4359 23.832 28.0328 23.2001C27.7434 24.1127 27.4386 24.7604 26.8061 25.4855C26.1168 26.2234 25.2707 26.637 24.3304 26.9583C24.3825 26.6666 24.4407 26.3761 24.5054 26.087C24.8623 24.5332 25.7 23.4789 27.0305 22.6465Z" fill="#EEEAE7"/>
<path d="M70.6419 11.0039C70.7373 11.0602 70.7273 11.0491 70.8263 11.1376C71.6728 11.8943 72.0184 13.7635 72.0522 14.8171C72.068 15.305 72.1119 15.9553 71.7607 16.3286C71.5141 16.1639 71.1303 13.6764 70.9187 13.1738L70.875 13.0725C70.8143 13.1399 70.7919 13.1592 70.7448 13.2288C70.1486 14.1106 70.5846 15.7064 70.7832 16.6713C70.3396 16.0633 69.9775 15.4428 69.8093 14.7013C69.497 13.3257 69.9133 12.1612 70.6419 11.0039Z" fill="#EEEAE7"/>
<path d="M26.4078 9.34961C26.5243 9.48952 26.6357 9.6336 26.7346 9.78692C27.8518 11.5204 27.9684 13.3455 27.5552 15.3137C27.4155 14.63 27.4067 13.9187 27.2588 13.2346C27.1517 12.7395 27.0135 12.2058 26.5704 11.9284C26.5647 11.9542 26.5588 11.9799 26.5537 12.0057L26.5294 12.1349C26.3061 13.288 26.4957 14.3941 26.6568 15.5416C26.2144 14.8698 25.8267 14.1816 25.6223 13.3973C25.2318 11.9006 25.6423 10.64 26.4078 9.34961Z" fill="#EEEAE7"/>
<path d="M190.615 9.56641C190.633 9.56909 190.651 9.57028 190.669 9.57446C191.04 9.66107 191.169 9.8978 191.356 10.2126C191.916 11.1552 192.001 12.4687 191.732 13.5161C191.518 14.3506 191.151 15.0034 190.402 15.4463C190.51 15.2682 190.589 15.0877 190.632 14.8831C190.789 14.1149 191.055 12.0076 190.587 11.3209C189.75 12.3746 190.057 14.4566 189.411 15.2139C189.288 13.2856 188.817 12.8499 189.782 10.9085C189.998 10.474 190.382 10.116 190.568 9.68172C190.584 9.64356 190.599 9.60472 190.615 9.56641Z" fill="#EEEAE7"/>
<path d="M151.366 22.0458C151.406 22.0428 151.444 22.039 151.483 22.0368C152.77 21.9631 154.084 22.6317 155.007 23.4895C155.5 23.9481 156.184 24.7835 156.211 25.4765C154.707 25.7859 153.491 25.3548 152.169 24.695C151.66 24.0218 151.021 23.308 150.36 22.785C151.562 23.2315 153.201 23.9321 154.282 24.604C154.273 24.5184 154.275 24.4821 154.249 24.4049C153.935 23.4659 152.193 22.4591 151.366 22.0458Z" fill="#EEEAE7"/>
<path d="M66.2599 21.6895L66.289 21.7025C66.1457 21.9942 64.3064 23.0629 63.8971 23.3826C63.4599 23.7239 63.0986 24.1175 62.738 24.5366C64.2392 24.0715 65.4835 23.4496 66.7412 22.5123C66.2741 23.3147 65.7406 23.9417 65.0575 24.5707C64.7999 24.7498 64.5383 24.9211 64.2532 25.0541C63.5398 25.3866 61.6978 25.9199 60.9623 25.6097C60.7562 25.5227 60.7596 25.437 60.6864 25.2412C60.7173 25.1242 60.7447 25.0245 60.8082 24.9203C61.6676 23.5059 64.6956 22.1817 66.2599 21.6895Z" fill="#EEEAE7"/>
<path d="M17.7134 7.57031C18.5211 7.97669 19.471 8.53408 20.0472 9.24673C20.861 10.2528 21.1283 11.632 20.9964 12.8935L20.9394 12.8923C20.3735 11.6802 19.7813 10.5493 19 9.45916C18.8889 9.55777 18.8703 9.64423 18.8172 9.77982C18.8398 11.123 19.7668 12.7107 20.3863 13.8791C20.0394 13.5937 19.6947 13.2827 19.3903 12.9525C17.9291 11.3684 17.599 9.64706 17.7134 7.57031Z" fill="#EEEAE7"/>
<path d="M198.845 7.67188C198.904 7.67515 198.971 7.67605 199.027 7.69386C199.137 7.72845 199.243 7.7646 199.286 7.87283C199.688 8.89048 199.46 10.2832 199.033 11.2582C198.558 12.347 197.906 12.9909 196.809 13.4229C197.541 12.728 198.335 10.3811 198.373 9.37654L198.166 9.18565C198.003 9.60187 197.492 10.0316 197.244 10.4328C196.75 11.2308 196.396 12.4934 195.734 13.1055C196.05 12.4545 195.954 11.8984 195.986 11.1991C196.075 9.27211 197.565 8.87639 198.759 7.75401C198.788 7.72703 198.816 7.69938 198.845 7.67188Z" fill="#EEEAE7"/>
<path d="M199.174 22.2723C200.319 22.2435 201.464 22.9843 202.258 23.7481C203.024 24.4851 204.196 25.9849 204.209 27.0914C202.491 26.8975 201.474 26.2795 200.032 25.3929C199.814 24.8827 198.378 23.1228 197.921 22.7295C198.779 23.0542 201.565 24.7117 202.123 25.4056C202.115 25.2379 202.102 25.0696 202.049 24.9087C201.669 23.7559 200.166 22.817 199.174 22.2723Z" fill="#EEEAE7"/>
<path d="M57.7489 16.0081C58.9383 15.9039 59.927 16.1573 61.0478 16.4926C59.6576 16.5315 57.7982 16.5975 56.5938 17.3663L56.6092 17.5206C57.9703 17.9986 59.5837 17.1651 60.7015 17.4928L60.5484 17.6492C58.245 18.815 56.1857 19.1147 53.6888 18.4136C54.8305 17.0187 55.9685 16.2849 57.7489 16.0081Z" fill="#EEEAE7"/>
<path d="M158.287 15.9198C159.354 15.7874 160.539 16.0224 161.523 16.4373C162.056 16.6616 162.852 17.1051 163.076 17.6629C162.892 17.8812 162.64 18.0151 162.389 18.143C160.705 18.9981 159.042 18.9274 157.285 18.3602C156.926 18.0152 156.413 17.8026 155.968 17.5974C157.548 17.6533 159.261 17.8386 160.806 17.4664C159.781 16.5997 157.108 16.5419 155.784 16.5012C156.621 16.3345 157.454 16.113 158.287 15.9198Z" fill="#EEEAE7"/>
<path d="M17.495 22.2266L17.7242 22.2383C17.6834 22.4565 17.1294 22.8102 16.9433 22.9788C16.1155 23.7291 15.4675 24.5328 14.9127 25.4985C16.2782 24.7113 17.4867 23.8295 18.6934 22.8163C18.2131 23.8079 17.6434 24.627 16.9164 25.4465C15.6517 26.7002 14.2088 27.015 12.4956 27.0791C12.6972 26.6579 12.9011 26.2357 13.124 25.8254C14.1657 23.9073 15.4137 22.8399 17.495 22.2266Z" fill="#EEEAE7"/>
<path d="M206.322 11.2416C207.216 11.1308 208.08 11.1477 208.974 11.2198C208.971 11.2737 208.97 11.3567 208.958 11.4132C208.71 12.4892 207.503 13.6541 206.609 14.2297C205.863 14.7101 204.51 15.341 203.605 15.1438C203.869 14.6092 205.165 14.2897 205.596 13.6557C205.608 13.6388 205.618 13.621 205.63 13.6036C205.658 13.5876 205.689 13.573 205.718 13.5553C206.181 13.2672 206.88 12.7714 207.02 12.2311C206.153 12.6353 205.28 12.9606 204.435 13.4165C203.621 13.8559 202.88 14.4133 202.038 14.7982C202.476 14.4171 202.723 13.979 203.055 13.51C203.961 12.2291 204.874 11.7223 206.322 11.2416Z" fill="#EEEAE7"/>
<path d="M9.19087 11.1152C10.0206 11.1172 10.8733 11.2122 11.6602 11.4869C13.1417 12.0038 14.069 12.995 14.7265 14.3896C13.9116 13.8853 11.4922 12.4071 10.5407 12.4965L10.4554 12.6244L10.7649 12.9668C11.8242 14.0415 13.0398 14.6085 14.3989 15.2081C13.0748 15.1477 11.8583 15.0081 10.6899 14.3196C9.65539 13.7098 8.49351 12.4952 8.17981 11.3106C8.40812 11.1221 8.89848 11.1426 9.19087 11.1152Z" fill="#EEEAE7"/>
<path d="M158.741 7.22649C158.98 7.2156 159.05 7.17349 159.243 7.326C159.088 8.46604 158.76 9.52797 158.171 10.5207C157.133 12.2703 155.444 13.6801 153.459 14.188C154.164 13.7322 157.131 10.4014 157.32 9.67734L157.581 9.34506C157.292 9.39813 157.01 9.6239 156.759 9.78177C154.886 10.9576 154.083 12.6961 152.678 13.6268C153.189 13.0549 153.386 12.3312 153.734 11.6586C155.317 8.59275 156.104 8.8344 158.68 7.2636L158.741 7.22649Z" fill="#EEEAE7"/>
<path d="M57.4789 7.32617C58.2509 7.37716 59.0177 7.51751 59.7319 7.82274C62.1771 8.8673 63.2292 11.5324 64.1309 13.8437C63.0591 12.4097 61.8958 11.0995 60.5409 9.92893L60.2934 9.81235L60.1975 9.93788C60.3515 10.9898 62.484 13.2449 63.239 14.1409C60.342 12.3482 58.3742 10.7829 57.4789 7.32617Z" fill="#EEEAE7"/>
<path d="M7.10909 18.0293C8.48743 18.0769 9.51466 18.4452 10.732 19.0531C8.75031 19.3295 6.8243 19.7742 4.88347 20.2501C6.99598 20.5154 8.95976 20.3278 11.0656 20.0655C10.633 20.4594 10.1599 20.7829 9.67881 21.1141C9.16095 21.3959 8.62058 21.6245 8.05771 21.7999C5.66869 22.5202 3.32668 22.0228 1.1781 20.8602C2.77372 19.1234 4.76902 18.1787 7.10909 18.0293Z" fill="#EEEAE7"/>
<path d="M208.683 18.0366C210.351 17.8259 211.88 18.0911 213.386 18.8458C214.149 19.2282 215.53 20.0556 215.808 20.9024C215.674 21.1009 215.339 21.2324 215.125 21.3333C212.66 22.4928 210.211 22.1991 207.727 21.3107C207.327 20.834 206.304 20.3049 205.736 20.0395C207.951 20.3178 210.178 20.5981 212.403 20.243C210.398 19.5082 208.189 19.3036 206.08 19.0598C206.959 18.7615 207.794 18.3321 208.683 18.0366Z" fill="#EEEAE7"/>
<path d="M110.203 22.7383C111.468 23.1418 112.852 23.4316 114.07 23.9499C116.61 25.0308 118.635 26.9089 121.581 26.8811C123.291 26.8649 124.1 25.1635 125.287 25.2295C125.407 25.3161 125.48 25.3759 125.54 25.5154C125.768 26.0435 125.685 26.427 125.477 26.928C125.382 27.0567 125.284 27.1774 125.176 27.2952C124.248 28.3002 123.094 28.8262 121.725 28.8761C117.989 29.0124 112.85 25.1552 110.203 22.7383Z" fill="#EEEAE7"/>
<path d="M106.791 22.7969L106.865 22.8793C104.114 25.1651 99.3647 29.0045 95.6118 28.8903C94.1142 28.8448 92.9934 28.2308 91.9925 27.1482C91.9287 27.0216 91.8678 26.8937 91.8098 26.7643C91.6419 26.3863 91.5376 25.9337 91.7182 25.5381C91.8457 25.259 92.0694 25.1663 92.3418 25.0659L92.2256 25.1361C92.8077 25.0388 93.5455 26.0961 94.2987 26.4748C97.2517 27.9601 100.425 25.1244 102.914 24.0124C104.117 23.4746 105.53 23.2137 106.791 22.7969Z" fill="#EEEAE7"/>
<path d="M108.499 22.7188C108.66 22.7583 108.751 22.8004 108.888 22.8992C109.98 23.6894 110.685 25.101 110.885 26.411C111.276 28.9562 110.137 31.2312 108.681 33.2271C108.503 33.2226 108.407 33.1516 108.286 33.0283C106.974 31.6931 106.184 28.9861 106.269 27.142C106.357 25.2642 107.148 23.9557 108.499 22.7188Z" fill="#EEEAE7"/>
<path d="M108.553 1.6582C109.667 2.39478 110.789 4.69395 111.269 5.93946C113.059 10.5798 110.505 14.1742 108.697 18.268L108.545 18.2661C107.905 17.5396 106.182 13.1793 105.831 12.1075C105.721 11.7808 105.628 11.4492 105.552 11.1129C105.477 10.7766 105.419 10.4372 105.378 10.0948C105.027 6.8948 106.626 4.07015 108.553 1.6582Z" fill="#EEEAE7"/>
<path d="M120.958 11.9965C123.835 11.7524 126.177 12.3387 128.846 13.3697C127.493 16.7871 124.487 20.1412 121.299 21.9443C117.605 24.0334 113.569 23.1178 109.696 22.0488C112.107 21.3934 114.372 20.507 116.639 19.4672C118.933 18.3706 121.308 17.1801 123.334 15.6388C118.678 17.0942 114.508 19.7763 109.801 21.1662C110.436 20.2398 111.077 19.3179 111.725 18.4004C114.033 15.1801 116.927 12.6639 120.958 11.9965Z" fill="#EEEAE7"/>
<path d="M93.7043 11.8978C94.7295 11.7958 95.9227 11.9463 96.9218 12.172C101.818 13.2788 104.754 17.1611 107.275 21.1751C102.695 19.6854 98.5806 17.1518 94.0225 15.6507C95.5128 16.7549 97.1156 17.6674 98.7524 18.5324C101.541 20.0005 104.297 21.103 107.329 21.9772C104.376 23.11 100.438 23.7628 97.4221 22.6395C93.0071 20.995 90.2852 17.4033 88.3802 13.2606C90.156 12.5592 91.7952 12.0545 93.7043 11.8978Z" fill="#EEEAE7"/>
</svg>
