<svg width="125" height="19" viewBox="0 0 125 19" fill="none" xmlns="http://www.w3.org/2000/svg">
<path d="M41.2885 12.1882C41.4367 12.1787 41.6003 12.1618 41.7466 12.1919C41.9803 12.24 42.2021 12.3964 42.3322 12.5902C42.469 12.7944 42.497 13.0463 42.4304 13.2793C42.3394 13.5973 42.1217 13.7504 41.8483 13.9083C41.7172 13.9204 41.5735 13.9396 41.442 13.9298C41.4124 13.9276 41.3829 13.9238 41.3537 13.9185C41.3244 13.9132 41.2955 13.9064 41.267 13.8981C41.2385 13.8898 41.2105 13.88 41.1831 13.8688C41.1556 13.8576 41.1288 13.845 41.1028 13.8309C41.0767 13.817 41.0515 13.8017 41.027 13.785C41.0026 13.7684 40.9792 13.7506 40.9567 13.7316C40.9342 13.7125 40.9128 13.6923 40.8926 13.671C40.8723 13.6498 40.8532 13.6275 40.8354 13.6042C40.6903 13.4169 40.6456 13.1894 40.6877 12.9595C40.7574 12.579 40.9776 12.3873 41.2885 12.1882Z" fill="#665130"/>
<path d="M83.9492 4.9082C84.2877 5.00031 84.688 5.49556 84.8581 5.7852C85.227 6.41234 85.3802 7.26831 85.1813 7.97171C84.9969 8.62603 84.6127 9.05739 84.0161 9.38275C83.7377 9.32014 83.5185 9.16082 83.3137 8.97201C82.8948 8.5857 82.7476 8.05054 82.7358 7.50027C82.7129 6.4774 83.2409 5.61737 83.9492 4.9082Z" fill="#665130"/>
<path d="M83.9669 5.51562C84.0169 5.55068 84.0668 5.58657 84.1125 5.62723C84.5119 5.98308 84.7277 6.58061 84.7649 7.0964C84.8123 7.76055 84.6007 8.25079 84.1624 8.7443C84.1979 7.99405 84.2326 7.27127 84.0972 6.52829C83.6394 6.98355 83.6487 8.05492 83.653 8.65609C83.466 8.34995 83.2959 8.04093 83.2451 7.68376C83.13 6.86937 83.4812 6.15335 83.9669 5.51562Z" fill="#D0B729"/>
<path d="M62.5291 0C63.0347 0.248146 63.5321 0.971672 63.8268 1.43751C64.799 2.97414 65.1652 4.62428 64.7317 6.40059C65.0548 5.93342 65.4471 5.46223 65.8575 5.06531C66.0155 4.9125 66.3935 4.65942 66.477 4.47471C66.5873 4.2308 66.4797 3.79159 66.5494 3.51179C66.6061 3.28402 66.7191 3.07873 66.9373 2.96476C67.1996 2.82785 67.5337 2.83976 67.8094 2.93128C67.8492 2.94472 67.8884 2.96011 67.9267 2.97742C67.965 2.99472 68.0024 3.01384 68.0387 3.0348C68.075 3.05579 68.1102 3.07852 68.1442 3.10292C68.1782 3.1274 68.2109 3.15345 68.2422 3.18113C68.2735 3.20876 68.3033 3.23784 68.3316 3.26842C68.3599 3.29908 68.3866 3.33098 68.4116 3.36417C68.4366 3.39741 68.4599 3.43176 68.4813 3.46727C68.5028 3.50283 68.5224 3.53934 68.5401 3.57672C68.6395 3.78948 68.6636 4.0265 68.5647 4.24411C68.4396 4.51952 68.0621 4.75845 67.7743 4.85214C67.5003 4.94134 67.2312 4.81542 66.9942 4.69058L66.9267 4.65461C66.008 5.5221 65.1326 6.50987 64.4562 7.57198C63.8886 8.46338 63.4088 9.4031 62.8141 10.2793C62.8636 10.6873 62.7474 11.1491 62.6835 11.5549C64.329 9.38854 65.4249 7.27273 68.1873 6.26683C70.3953 5.46294 72.6499 6.03664 74.6981 6.96334C74.0753 8.60357 73.0316 10.0298 71.7048 11.1935C73.967 11.1977 76.2383 11.2432 78.4981 11.1302C81.7966 10.9653 85.0288 10.319 87.3338 7.82382C87.3778 6.99429 87.5987 6.26114 88.0522 5.55193C88.9078 4.21225 90.2592 3.48316 91.7985 3.14445C91.8627 3.23796 91.8831 3.30841 91.889 3.41878C91.9533 4.68166 91.3686 5.89318 90.5114 6.81398C89.7311 7.65235 88.7715 8.11487 87.6071 8.16673C87.228 8.62182 86.6865 9.1316 86.1466 9.38568C87.0554 9.19649 87.9617 9.06696 88.8824 8.95112C89.4519 8.63809 89.8209 8.26257 90.5038 8.13752C91.5031 7.95456 92.6633 8.19482 93.4934 8.77276C93.7871 8.9773 94.1967 9.34838 94.2568 9.70887C94.2407 9.74858 94.2399 9.75651 94.2077 9.79422C93.7151 10.3605 92.5271 10.6505 91.8078 10.6953C90.838 10.7556 90.1094 10.5695 89.3817 9.94246C89.2387 9.81944 89.1303 9.66316 88.9873 9.54425C88.9704 9.5306 88.9535 9.51728 88.9374 9.50384C87.7552 9.53184 86.5104 9.73128 85.3976 10.1285C84.3957 10.4862 83.4792 10.9189 82.4299 11.157L82.4739 11.1626C84.0005 11.3461 85.6329 11.1892 87.1721 11.1967L98.1679 11.2173C99.7159 11.2126 101.264 11.2157 102.812 11.2265C103.755 11.2351 104.76 11.3226 105.693 11.1982C106.299 11.1174 106.862 10.7514 107.333 10.3899C107.756 10.0661 108.546 9.37962 108.616 8.83043C108.599 8.76538 108.612 8.78662 108.572 8.73617C108.371 8.48018 108.141 8.20951 108.033 7.90016C107.653 6.81705 108.212 5.78083 108.835 4.92482C108.983 4.72136 109.206 4.51761 109.308 4.29324C109.318 4.27108 109.328 4.24868 109.338 4.22636L109.366 4.24387C109.838 4.53275 110.177 5.20006 110.33 5.70755C110.558 6.46597 110.562 7.33396 110.159 8.03824C109.89 8.50628 109.533 8.79856 109.005 8.93971C108.997 8.96245 108.989 8.98527 108.981 9.00784C108.624 9.9357 107.745 10.7712 106.839 11.1848C108.426 11.0446 109.677 10.2653 110.811 9.21068C111.203 8.84549 112.05 8.05844 112.062 7.53274C112.11 7.32981 111.943 6.9377 111.907 6.72072C111.791 6.02943 111.793 5.44373 112.228 4.85741C112.624 4.32328 113.627 3.48225 114.316 3.40338C114.421 3.39131 114.482 3.39214 114.563 3.46574C114.757 3.64203 114.782 4.08708 114.796 4.33157C114.848 5.30175 114.726 6.31105 114.023 7.05466C113.575 7.53033 113.113 7.71048 112.463 7.74263C111.915 8.86536 110.67 10.1777 109.481 10.6253C111.06 10.4754 114.194 9.37572 115.354 8.41234C115.607 8.20241 115.688 7.06034 116.405 6.3988C117.17 5.69162 118.254 5.45036 119.281 5.47816C119.593 5.48667 120.05 5.49165 120.278 5.7266C120.32 5.83625 120.34 5.91139 120.314 6.02889C120.158 6.75233 119.223 7.73089 118.631 8.13873C117.744 8.74949 116.824 8.81528 115.778 8.63622C114.89 9.32435 113.698 9.90271 112.592 10.1403C114.296 10.118 115.73 10.1181 117.429 10.3639C118.111 9.79824 118.926 9.41128 119.821 9.30374C121.151 9.14375 122.394 9.6271 123.429 10.4179C123.731 10.6483 124.28 11.0645 124.33 11.4601C124.288 11.5234 124.258 11.5719 124.198 11.6211C123.239 12.4181 121.694 12.6579 120.483 12.5179C119.396 12.3923 118.469 12.0117 117.739 11.2113C117.631 11.0929 117.57 10.9522 117.469 10.8321L117.433 10.7896C115.129 10.4353 112.886 10.3833 110.601 10.8711C111.539 10.9993 112.526 11.2991 113.355 11.747C113.846 11.6645 114.26 11.6262 114.751 11.7361C115.707 11.9505 116.477 12.644 116.976 13.4457C117.209 13.8204 117.699 14.6842 117.593 15.1165C117.567 15.1356 117.531 15.166 117.5 15.1804C117.121 15.3559 116.405 15.2491 116.013 15.1376C115.01 14.8528 113.85 14.0368 113.444 13.0722C113.328 12.7966 113.282 12.3536 113.143 12.1269C113.133 12.1105 113.122 12.0948 113.111 12.0786C112.206 11.5156 110.689 11.1402 109.623 11.1727C108.97 11.1927 108.29 11.3407 107.644 11.4398C107.937 11.5335 108.152 11.7047 108.374 11.9061L108.347 11.9094C108.628 11.9643 108.914 12.0104 109.173 12.1361C109.985 12.5313 110.589 13.3221 110.856 14.1586C110.961 14.4859 111.089 15.127 110.922 15.4404C110.402 15.3883 109.945 15.2725 109.484 15.0255C108.741 14.6267 108.326 13.8343 108.148 13.0481C108.085 12.7707 108.083 12.4879 107.996 12.2152C107.992 12.2024 107.987 12.1897 107.983 12.1771C107.98 12.1691 107.978 12.1605 107.974 12.153C107.808 11.8581 107.382 11.7399 107.082 11.6307C104.686 11.907 102.154 11.7525 99.741 11.7504C95.8653 11.7468 91.9863 11.7789 88.1106 11.7299C88.6928 11.9542 89.1853 12.3304 89.5974 12.7878C89.9156 13.1415 90.3759 13.7823 90.3455 14.2746C89.7404 14.5169 88.8781 14.5189 88.2477 14.3781C87.5402 14.2201 86.6711 13.7431 86.3403 13.0807C86.2091 12.8189 86.1626 12.5329 85.9976 12.2853C85.99 12.2739 85.9815 12.2629 85.9739 12.2515C85.9561 12.2335 85.9409 12.2139 85.9214 12.1974C85.3959 11.7348 84.5361 11.7082 83.8735 11.7061C84.19 11.9984 84.4989 12.4618 84.6097 12.8766C84.6715 13.1107 84.6885 13.3823 84.5462 13.5931C84.4075 13.7985 84.1637 13.883 83.9268 13.9249C83.6179 13.9796 83.3184 13.8986 83.0679 13.7157C82.8818 13.5795 82.7252 13.3798 82.7125 13.1457C82.6685 12.365 83.4885 12.2893 83.6696 12.0761C83.6298 12.0211 83.6374 12.0272 83.579 11.9724C83.3793 11.7828 82.9105 11.7373 82.6431 11.7161C81.528 11.6277 80.3323 11.7226 79.2085 11.7169C76.5109 11.6983 73.8132 11.6943 71.1154 11.7049C69.6345 12.7039 68.5731 13.1815 66.726 13.1738C67.8078 13.6838 69.5387 14.6952 70.7091 14.0112C71.0473 13.8135 71.2397 13.4231 71.6486 13.3229C71.895 13.2625 72.1678 13.3409 72.3789 13.4694C72.5903 13.5982 72.7479 13.794 72.7945 14.0363C72.8667 14.4124 72.6997 14.8099 72.4829 15.1149C72.0373 15.7419 71.2814 16.128 70.5228 16.2501C68.2296 16.6193 65.8838 14.8468 64.1319 13.6187C64.2616 14.0475 64.359 14.4638 64.3745 14.9128C64.4295 16.5266 63.646 17.8622 62.5493 19C61.6956 18.1531 61.2078 17.3392 60.8598 16.2002C60.6633 15.2516 60.7021 14.4882 61.0257 13.5739C60.6603 13.842 60.2908 14.1045 59.9168 14.3612C58.3892 15.3893 56.4918 16.6045 54.5467 16.234C53.8569 16.1026 53.1262 15.7365 52.7318 15.1524C52.4995 14.8086 52.3418 14.3442 52.4428 13.9321C52.4994 13.7005 52.6309 13.5132 52.8492 13.4022C53.7711 12.933 54.1892 13.9605 54.952 14.1757C55.989 14.4685 57.4547 13.6717 58.3556 13.1947C56.5764 13.1932 55.333 12.6151 53.8944 11.6857L39.5191 11.7009C39.1248 12.6111 38.6138 13.4113 37.7395 13.9499C37.0658 14.3649 35.9989 14.6206 35.2144 14.4212C35.0397 14.3768 34.8834 14.3 34.7954 14.1403C34.7318 14.0249 34.738 13.8805 34.7789 13.7574C35.1058 12.772 36.4684 12.1014 37.3574 11.683C33.194 11.7345 29.0267 11.6952 24.863 11.6981L20.5771 11.7004C19.6518 11.7004 18.7074 11.7325 17.7861 11.6428C17.5226 11.7801 17.2692 11.9402 17.0139 12.0918C17.1508 12.6376 17.0977 13.0688 16.8343 13.572C16.4533 14.3 15.6569 14.9484 14.8602 15.196C14.632 15.2669 14.3172 15.3241 14.0979 15.2115C13.9395 14.7998 14.2248 14.0514 14.3716 13.636C14.9087 12.116 15.8563 12.137 17.1398 11.5339C15.226 11.2599 13.7117 11.2787 11.892 12.0263C11.861 12.2197 11.8126 12.409 11.7469 12.5941C11.4093 13.5752 10.6557 14.4524 9.70292 14.9116C9.17859 15.1643 8.08029 15.4603 7.51358 15.24C7.40296 15.197 7.34211 15.134 7.31252 15.0213C7.19447 14.5734 7.72428 13.8048 7.97001 13.4522C8.62008 12.5193 9.57074 11.7015 10.7707 11.6201C11.0593 11.6005 11.3646 11.6941 11.6367 11.666C11.998 11.6286 12.4231 11.3354 12.7815 11.233C13.17 11.1219 13.5881 11.0627 13.9862 10.9892C11.7347 10.4601 9.96641 10.4092 7.69447 10.7892C7.63035 10.8873 7.56258 10.983 7.4912 11.0763C6.84173 11.9148 5.73082 12.3911 4.68529 12.5224C4.59701 12.5334 4.50848 12.5424 4.41973 12.5493C4.33098 12.5562 4.24211 12.5609 4.15315 12.5635C4.06415 12.5661 3.97519 12.5665 3.88618 12.5648C3.79718 12.5631 3.70826 12.5594 3.61943 12.5534C3.5306 12.5474 3.44202 12.5394 3.35361 12.5293C3.26521 12.519 3.17709 12.5067 3.08932 12.4923C3.00155 12.4779 2.91416 12.4614 2.8272 12.4427C2.74024 12.4242 2.65378 12.4035 2.56788 12.3807C2.48198 12.358 2.39667 12.3332 2.31196 12.3064C2.22728 12.2795 2.14329 12.2507 2.06007 12.2198C1.97684 12.189 1.89442 12.1561 1.81285 12.1213C1.73127 12.0865 1.6506 12.0498 1.57085 12.0111C1.4911 11.9724 1.41238 11.9319 1.33467 11.8895C1.25696 11.847 1.18036 11.8027 1.1049 11.7566C1.02941 11.7104 0.955138 11.6625 0.882059 11.6128C0.80898 11.5632 0.737175 11.5118 0.666687 11.4586C0.826475 11.2527 0.990509 11.0523 1.17773 10.8693C2.14062 9.92777 3.38801 9.31975 4.76563 9.32751C5.82776 9.33344 6.81829 9.66635 7.56619 10.4144C9.23528 10.1443 10.7661 10.0732 12.4443 10.3018C11.3946 9.72846 10.3731 9.10629 9.32989 8.52138L9.29316 8.53171C8.35681 8.79155 7.47048 8.70642 6.61523 8.23232C5.92436 7.84934 4.98211 6.91687 4.80623 6.13908C4.7734 5.99391 4.77009 5.86011 4.86644 5.73685C5.00992 5.5533 5.29926 5.48227 5.5236 5.45514C6.54228 5.33179 7.74466 5.64918 8.54883 6.27342C9.17163 6.75694 9.48704 7.34836 9.58157 8.11184C11.5473 9.44596 13.6627 10.4873 15.9973 11.0231C14.5783 10.2583 13.4391 9.30378 12.5008 8.01081C12.2194 7.93696 11.9533 7.78773 11.7245 7.6131C10.8908 6.97687 10.3912 6.04905 10.2818 5.02477C10.2414 4.64685 10.2129 3.78628 10.4568 3.49781C10.706 3.43769 10.9086 3.47109 11.1399 3.57066C11.9462 3.91784 12.6375 4.66091 12.9427 5.46339C13.2437 6.25421 13.1959 7.05283 12.8346 7.81258C12.9079 7.91875 12.9845 8.02251 13.0646 8.12387C14.0408 9.3797 15.5036 10.5429 17.0583 11C17.5123 11.1334 17.9951 11.1835 18.4637 11.2466C17.9491 10.9109 17.4143 10.5721 16.9505 10.1706C16.6404 9.90234 16.3796 9.5847 16.1034 9.28432C15.3919 8.51084 14.777 7.88245 14.7155 6.78627C14.6598 5.79062 15.0847 4.88213 15.7479 4.14728C16.3499 4.8562 16.8491 5.74871 16.9908 6.66641C17.1264 7.54481 16.9149 8.22278 16.3836 8.92897C16.6206 9.25233 16.8593 9.54972 17.1571 9.82218C17.775 10.3874 18.5993 10.9798 19.4409 11.14C20.3003 11.3033 21.3235 11.2064 22.2008 11.206L27.2471 11.2009C31.0326 11.2168 34.8181 11.2113 38.6034 11.1843C40.1385 11.1768 41.6778 11.2272 43.212 11.1747C40.9409 10.6583 38.7341 9.97183 36.4544 9.4889C35.0314 10.2214 33.519 10.9071 31.8639 10.6023C31.5947 10.5528 30.9482 10.4359 30.79 10.2082C30.7832 10.1006 30.7795 9.99224 30.8115 9.88773C30.9798 9.33958 31.7635 8.82163 32.2552 8.57253C33.289 8.04849 34.407 8.01401 35.4597 8.49648C35.847 8.67402 36.2183 8.90254 36.624 9.03804C37.3929 9.29494 38.2122 9.42194 38.9913 9.6661C38.5001 9.32182 38.0521 8.9237 37.5405 8.60722C36.455 7.93568 35.3281 7.46424 34.4016 6.55845C33.5946 5.7695 32.985 4.66772 32.9795 3.53059C33.0619 3.40268 33.1027 3.36086 33.264 3.33787C34.049 3.22618 35.1522 3.71302 35.7724 4.15715C36.7307 4.84342 37.7533 7.06395 37.9277 8.21809L37.9377 8.2873C39.0053 9.25055 40.0989 9.99083 41.5135 10.3612C41.4898 10.3057 41.4641 10.2515 41.4398 10.1963C40.9706 9.12516 39.8956 8.89752 39.9119 7.39694C39.9212 6.53829 40.4282 5.77219 41.0294 5.1845C41.5502 5.71092 41.9255 6.47879 42.0793 7.19108C42.2727 8.08603 42.139 8.80873 41.6262 9.56707C41.789 9.85612 41.9454 10.1485 42.0954 10.4441C43.0354 10.7055 44.0075 11.0223 44.9773 11.1451C46.0157 11.2765 47.1394 11.1921 48.1881 11.1855C49.8965 11.1762 51.6048 11.1769 53.3132 11.1878C51.9948 9.97403 51.1125 8.60087 50.4252 6.96538C51.7985 6.09822 53.667 5.72062 55.2803 5.92749C57.5239 6.21521 59.421 7.48245 60.7747 9.22084C61.3754 9.99233 61.877 10.8348 62.4777 11.6082C62.4019 11.2083 62.3618 10.7451 62.2336 10.3623C61.9992 9.66237 60.9108 7.92215 60.4451 7.25659C60.1131 6.78208 58.6769 4.88018 58.1949 4.78086C57.9337 4.72713 57.6498 4.94631 57.3524 4.87529C57.1026 4.81558 56.8846 4.61515 56.7518 4.40704C56.5732 4.12716 56.5127 3.77546 56.601 3.45587C56.6679 3.21378 56.8257 3.00857 57.0529 2.88925C57.3285 2.74454 57.6855 2.71147 57.9801 2.81789C58.2594 2.91875 58.4729 3.12636 58.5834 3.396C58.7164 3.72052 58.6453 3.96095 58.5018 4.26059L58.4681 4.33037C59.1711 4.99751 59.8066 5.6927 60.411 6.4466C60.2707 5.95466 60.1917 5.46991 60.1855 4.9581C60.1629 3.07392 61.2315 1.314 62.5291 0Z" fill="#665130"/>
<path d="M57.3791 3.28175C57.4916 3.27358 57.6124 3.26653 57.7244 3.28009C57.862 3.29665 57.9966 3.37021 58.08 3.4787C58.2126 3.651 58.1867 3.84053 58.1579 4.04092C58.0901 4.03553 58.0088 4.0325 57.9451 4.00835C57.7347 3.92832 57.6409 3.63636 57.5663 3.4463C57.543 3.38693 57.435 3.36975 57.3791 3.28175Z" fill="#D0B729"/>
<path d="M108.782 12.5281C108.802 12.5275 108.821 12.526 108.842 12.5265C109.103 12.5327 109.514 12.9168 109.685 13.1017C110.114 13.5669 110.525 14.3069 110.488 14.9488C110.061 14.6861 109.612 14.4974 109.19 14.2031C109.166 14.1203 109.182 14.1518 109.135 14.0817C108.901 13.7293 108.744 13.3246 108.48 12.994C108.523 13.0138 108.56 13.0294 108.599 13.0535C108.895 13.2355 109.541 13.822 109.634 14.1582C109.65 14.0645 109.671 13.9553 109.658 13.8602C109.591 13.395 109.149 12.8088 108.782 12.5281Z" fill="#D0B729"/>
<path d="M16.0706 12.3643C16.2073 12.5109 15.4261 13.4274 15.4208 13.759L15.5079 13.8287C15.963 13.6356 16.3016 13.0241 16.6418 12.6724C16.4769 13.1804 16.3032 13.5409 15.9428 13.9445C15.5499 14.3553 15.0678 14.5855 14.5319 14.7643C14.5616 14.6019 14.5948 14.4402 14.6316 14.2793C14.835 13.4145 15.3124 12.8276 16.0706 12.3643Z" fill="#D0B729"/>
<path d="M40.9236 5.88379C40.978 5.91511 40.9723 5.90893 41.0287 5.95818C41.5111 6.37938 41.7081 7.41984 41.7273 8.00628C41.7363 8.27787 41.7614 8.63986 41.5612 8.84764C41.4207 8.75595 41.202 7.37138 41.0814 7.09158L41.0565 7.03519C41.0219 7.07274 41.0091 7.08349 40.9822 7.12224C40.6425 7.61305 40.891 8.50129 41.0042 9.03836C40.7514 8.69994 40.545 8.35458 40.4491 7.94185C40.2712 7.17617 40.5084 6.52795 40.9236 5.88379Z" fill="#D0B729"/>
<path d="M15.7159 4.96289C15.7823 5.04077 15.8458 5.12096 15.9022 5.20631C16.5388 6.17122 16.6053 7.18707 16.3698 8.28263C16.2902 7.90205 16.2852 7.50616 16.2009 7.12534C16.1399 6.84977 16.0611 6.55271 15.8086 6.39833C15.8053 6.41264 15.802 6.42695 15.7991 6.44131L15.7852 6.51325C15.6579 7.15508 15.766 7.77074 15.8578 8.40946C15.6057 8.03556 15.3848 7.65245 15.2683 7.21595C15.0458 6.38285 15.2797 5.68115 15.7159 4.96289Z" fill="#D0B729"/>
<path d="M109.294 5.08398C109.304 5.08548 109.314 5.08614 109.324 5.08847C109.536 5.13668 109.609 5.26844 109.716 5.44365C110.035 5.96832 110.083 6.69948 109.93 7.28249C109.808 7.747 109.599 8.11036 109.172 8.35684C109.234 8.25773 109.278 8.15724 109.303 8.04339C109.393 7.61577 109.544 6.44279 109.278 6.06055C108.8 6.64708 108.975 7.80595 108.607 8.22752C108.537 7.15416 108.269 6.91166 108.819 5.83104C108.942 5.5892 109.161 5.38993 109.267 5.14817C109.276 5.12693 109.284 5.10531 109.294 5.08398Z" fill="#D0B729"/>
<path d="M86.9261 12.0296C86.949 12.0279 86.971 12.0258 86.993 12.0246C87.7267 11.9835 88.4756 12.3557 89.0011 12.8332C89.282 13.0884 89.6721 13.5534 89.6874 13.9392C88.8301 14.1114 88.1371 13.8714 87.384 13.5042C87.0937 13.1295 86.7298 12.7322 86.3533 12.441C87.0379 12.6896 87.9721 13.0795 88.5881 13.4535C88.5831 13.4059 88.5839 13.3857 88.5695 13.3427C88.3901 12.82 87.3975 12.2597 86.9261 12.0296Z" fill="#D0B729"/>
<path d="M38.4265 11.8311L38.4432 11.8383C38.3615 12.0007 37.3133 12.5956 37.0801 12.7735C36.8309 12.9635 36.625 13.1826 36.4195 13.4159C37.275 13.157 37.9841 12.8108 38.7008 12.2891C38.4347 12.7357 38.1306 13.0847 37.7414 13.4348C37.5945 13.5345 37.4454 13.6299 37.283 13.7039C36.8764 13.889 35.8267 14.1858 35.4076 14.0132C35.2902 13.9647 35.2921 13.917 35.2504 13.808C35.268 13.7429 35.2836 13.6874 35.3197 13.6294C35.8095 12.8421 37.5351 12.105 38.4265 11.8311Z" fill="#D0B729"/>
<path d="M10.7611 3.97266C11.2214 4.19885 11.7627 4.50911 12.0911 4.90579C12.5548 5.46576 12.7072 6.23347 12.632 6.93567L12.5995 6.93501C12.277 6.26032 11.9395 5.6308 11.4943 5.02403C11.431 5.07892 11.4204 5.12705 11.3901 5.20251C11.403 5.95019 11.9313 6.8339 12.2843 7.48424C12.0866 7.32542 11.8902 7.15229 11.7167 6.96849C10.884 6.08673 10.6959 5.12862 10.7611 3.97266Z" fill="#D0B729"/>
<path d="M113.983 4.02832C114.017 4.03015 114.055 4.03064 114.087 4.04056C114.15 4.05981 114.21 4.07993 114.235 4.14017C114.464 4.70662 114.334 5.48184 114.091 6.02456C113.82 6.63059 113.448 6.98901 112.823 7.22948C113.24 6.84268 113.693 5.53636 113.714 4.97717L113.597 4.87092C113.503 5.1026 113.212 5.34178 113.071 5.56511C112.789 6.00929 112.588 6.71208 112.21 7.05278C112.391 6.69046 112.336 6.38091 112.354 5.99166C112.405 4.91905 113.254 4.69878 113.934 4.07404C113.951 4.05902 113.967 4.04363 113.983 4.02832Z" fill="#D0B729"/>
<path d="M114.171 12.1557C114.823 12.1397 115.476 12.552 115.928 12.9772C116.365 13.3874 117.033 14.2222 117.04 14.8382C116.061 14.7302 115.482 14.3862 114.66 13.8927C114.536 13.6088 113.717 12.6292 113.457 12.4102C113.946 12.5909 115.533 13.5136 115.851 13.8998C115.847 13.8064 115.84 13.7128 115.809 13.6232C115.593 12.9815 114.736 12.4589 114.171 12.1557Z" fill="#D0B729"/>
<path d="M33.5764 8.66845C34.2542 8.61049 34.8176 8.75155 35.4563 8.93817C34.6641 8.95983 33.6045 8.99655 32.9181 9.4245L32.9269 9.51035C33.7025 9.77641 34.622 9.31249 35.259 9.49487L35.1717 9.58196C33.8591 10.2308 32.6855 10.3977 31.2626 10.0074C31.9132 9.231 32.5617 8.82254 33.5764 8.66845Z" fill="#D0B729"/>
<path d="M90.8706 8.62018C91.4782 8.54649 92.1534 8.67731 92.7145 8.90824C93.0183 9.03308 93.4719 9.27998 93.5996 9.59044C93.4947 9.71196 93.3509 9.78647 93.2078 9.85767C92.2482 10.3337 91.3005 10.2943 90.2994 9.97857C90.0946 9.78652 89.8027 9.66819 89.5488 9.55401C90.4492 9.58509 91.4257 9.68827 92.3058 9.48107C91.7219 8.99864 90.1987 8.96649 89.4438 8.94383C89.9211 8.85102 90.3959 8.72776 90.8706 8.62018Z" fill="#D0B729"/>
<path d="M10.6365 12.1299L10.7672 12.1364C10.7439 12.2579 10.4282 12.4547 10.3222 12.5486C9.85043 12.9662 9.48113 13.4136 9.16499 13.9511C9.94317 13.5129 10.6318 13.0221 11.3195 12.4581C11.0458 13.0101 10.7211 13.466 10.3068 13.9222C9.5861 14.62 8.76384 14.7952 7.78754 14.8309C7.90244 14.5965 8.01862 14.3614 8.14567 14.1331C8.73926 13.0654 9.45051 12.4713 10.6365 12.1299Z" fill="#D0B729"/>
<path d="M118.245 6.01595C118.754 5.95425 119.246 5.96367 119.756 6.00379C119.754 6.03378 119.753 6.08 119.747 6.11145C119.605 6.71039 118.917 7.35878 118.408 7.67915C117.983 7.94655 117.212 8.29776 116.696 8.18798C116.847 7.89042 117.585 7.71255 117.831 7.35969C117.837 7.35027 117.843 7.34035 117.85 7.33069C117.866 7.32177 117.884 7.31364 117.9 7.3038C118.164 7.14341 118.563 6.86742 118.642 6.56671C118.148 6.7917 117.65 6.97276 117.169 7.22651C116.705 7.47109 116.283 7.78138 115.803 7.99559C116.053 7.7835 116.193 7.53963 116.383 7.27858C116.899 6.56559 117.419 6.28351 118.245 6.01595Z" fill="#D0B729"/>
<path d="M5.9043 5.94629C6.37717 5.94737 6.86308 6.00027 7.31148 6.15315C8.15577 6.44088 8.68422 6.9926 9.05892 7.7689C8.5945 7.48818 7.21577 6.66538 6.67352 6.71512L6.62494 6.78632L6.80129 6.97692C7.40499 7.5751 8.09768 7.89071 8.87225 8.22449C8.11768 8.19084 7.42439 8.11313 6.75857 7.7299C6.16902 7.39048 5.50689 6.71442 5.32812 6.05503C5.45823 5.95011 5.73768 5.96152 5.9043 5.94629Z" fill="#D0B729"/>
<path d="M91.1292 3.78101C91.2654 3.77495 91.3052 3.75151 91.4152 3.83639C91.3272 4.47097 91.1402 5.06206 90.8043 5.61461C90.2128 6.58852 89.2506 7.37324 88.1192 7.65591C88.5212 7.40225 90.2119 5.54823 90.3194 5.14521L90.4683 4.96025C90.3033 4.98979 90.1425 5.11546 89.9995 5.20333C88.9324 5.85782 88.4746 6.82551 87.6741 7.34354C87.9653 7.02524 88.0778 6.62238 88.2758 6.24802C89.1778 4.5415 89.6264 4.676 91.0945 3.80167L91.1292 3.78101Z" fill="#D0B729"/>
<path d="M33.4224 3.83594C33.8624 3.86432 34.2994 3.94244 34.7064 4.11234C36.0998 4.69376 36.6994 6.1772 37.2132 7.46373C36.6024 6.66553 35.9395 5.93628 35.1674 5.28469L35.0263 5.2198L34.9717 5.28967C35.0595 5.8752 36.2747 7.13041 36.705 7.62919C35.054 6.6313 33.9326 5.76003 33.4224 3.83594Z" fill="#D0B729"/>
<path d="M4.71793 9.79395C5.50341 9.82042 6.08881 10.0255 6.78257 10.3638C5.65322 10.5177 4.55564 10.7652 3.44961 11.0301C4.65348 11.1778 5.77259 11.0733 6.97263 10.9273C6.72613 11.1466 6.45654 11.3267 6.18235 11.511C5.88724 11.6679 5.57929 11.7951 5.25853 11.8927C3.89708 12.2937 2.56243 12.0168 1.33801 11.3697C2.24731 10.4029 3.38439 9.87713 4.71793 9.79395Z" fill="#D0B729"/>
<path d="M119.59 9.79861C120.54 9.68137 121.412 9.82895 122.27 10.2491C122.705 10.4619 123.492 10.9224 123.65 11.3938C123.574 11.5043 123.383 11.5775 123.261 11.6336C121.856 12.279 120.461 12.1156 119.045 11.6211C118.817 11.3557 118.234 11.0612 117.91 10.9135C119.173 11.0684 120.442 11.2244 121.71 11.0267C120.567 10.6178 119.308 10.5038 118.107 10.3682C118.608 10.2021 119.083 9.96308 119.59 9.79861Z" fill="#D0B729"/>
<path d="M63.4683 12.415C64.1896 12.6396 64.9783 12.801 65.6722 13.0894C67.1195 13.6911 68.2738 14.7365 69.9524 14.721C70.9268 14.712 71.3882 13.765 72.0647 13.8017C72.1329 13.8499 72.1747 13.8832 72.209 13.9608C72.3389 14.2548 72.2913 14.4682 72.1729 14.7471C72.1185 14.8187 72.063 14.886 72.0011 14.9515C71.4725 15.5109 70.8147 15.8037 70.0348 15.8315C67.9054 15.9073 64.9769 13.7604 63.4683 12.415Z" fill="#D0B729"/>
<path d="M61.5241 12.4473L61.5661 12.4932C59.9985 13.7655 57.2921 15.9026 55.1534 15.839C54.3 15.8137 53.6613 15.4719 53.0909 14.8693C53.0545 14.7989 53.0198 14.7276 52.9868 14.6556C52.8911 14.4452 52.8317 14.1933 52.9345 13.9731C53.0072 13.8177 53.1347 13.7662 53.29 13.7103L53.2237 13.7493C53.5554 13.6952 53.9759 14.2837 54.4051 14.4945C56.088 15.3212 57.8961 13.7428 59.3146 13.1238C60.0004 12.8245 60.8054 12.6793 61.5241 12.4473Z" fill="#D0B729"/>
<path d="M62.4974 12.4043C62.5891 12.4263 62.6413 12.4498 62.7192 12.5047C63.3415 12.9446 63.7431 13.7303 63.8575 14.4595C64.0799 15.8762 63.4309 17.1425 62.6014 18.2535C62.5001 18.251 62.4454 18.2115 62.3764 18.1428C61.6283 17.3996 61.1781 15.8929 61.2269 14.8664C61.2767 13.8211 61.7278 13.0928 62.4974 12.4043Z" fill="#D0B729"/>
<path d="M62.5281 0.681641C63.163 1.09163 63.8025 2.3714 64.0763 3.06468C65.0963 5.64762 63.6409 7.64835 62.6103 9.92704L62.5241 9.92597C62.159 9.52157 61.177 7.09455 60.977 6.49794C60.9143 6.31609 60.8614 6.13155 60.8183 5.94431C60.7752 5.75711 60.7422 5.56821 60.7192 5.37761C60.5188 3.59645 61.4302 2.02418 62.5281 0.681641Z" fill="#D0B729"/>
<path d="M69.5978 6.43694C71.2369 6.30102 72.5718 6.62742 74.0928 7.20125C73.3219 9.10348 71.6089 10.9704 69.792 11.9741C67.6866 13.1369 65.387 12.6273 63.1799 12.0322C64.5539 11.6675 65.8445 11.1741 67.1366 10.5953C68.4435 9.98487 69.7969 9.32225 70.9515 8.4643C68.2982 9.27441 65.9217 10.7673 63.2395 11.541C63.6013 11.0253 63.9668 10.5122 64.336 10.0015C65.6513 8.20898 67.3007 6.80843 69.5978 6.43694Z" fill="#D0B729"/>
<path d="M54.0664 6.38043C54.6506 6.32363 55.3306 6.4074 55.9 6.53307C58.6899 7.14914 60.3632 9.31009 61.8001 11.5444C59.1898 10.7152 56.8453 9.30495 54.2477 8.46936C55.097 9.08402 56.0104 9.59193 56.9432 10.0734C58.5325 10.8906 60.1031 11.5042 61.8307 11.9908C60.1477 12.6214 57.9035 12.9847 56.1851 12.3595C53.6691 11.4441 52.118 9.44489 51.0323 7.13902C52.0443 6.74861 52.9785 6.46764 54.0664 6.38043Z" fill="#D0B729"/>
</svg>
