<svg width="70" height="70" viewBox="0 0 70 70" fill="none" xmlns="http://www.w3.org/2000/svg">
<g clip-path="url(#clip0_415_60)">
<path d="M70 0H0V70H70V0Z" fill="#EEEAE7"/>
<path d="M5.66667 3.5H3.5V5.66667H5.66667V3.5Z" fill="#665130"/>
<path d="M7.83329 3.5H5.66663V5.66667H7.83329V3.5Z" fill="#665130"/>
<path d="M10 3.5H7.83337V5.66667H10V3.5Z" fill="#665130"/>
<path d="M12.1667 3.5H10V5.66667H12.1667V3.5Z" fill="#665130"/>
<path d="M14.3333 3.5H12.1666V5.66667H14.3333V3.5Z" fill="#665130"/>
<path d="M16.5 3.5H14.3334V5.66667H16.5V3.5Z" fill="#665130"/>
<path d="M18.6667 3.5H16.5V5.66667H18.6667V3.5Z" fill="#665130"/>
<path d="M23 3.5H20.8334V5.66667H23V3.5Z" fill="#665130"/>
<path d="M25.1667 3.5H23V5.66667H25.1667V3.5Z" fill="#665130"/>
<path d="M29.5 3.5H27.3334V5.66667H29.5V3.5Z" fill="#665130"/>
<path d="M31.6667 3.5H29.5V5.66667H31.6667V3.5Z" fill="#665130"/>
<path d="M33.8333 3.5H31.6666V5.66667H33.8333V3.5Z" fill="#665130"/>
<path d="M36 3.5H33.8334V5.66667H36V3.5Z" fill="#665130"/>
<path d="M38.1667 3.5H36V5.66667H38.1667V3.5Z" fill="#665130"/>
<path d="M42.5 3.5H40.3334V5.66667H42.5V3.5Z" fill="#665130"/>
<path d="M44.6667 3.5H42.5V5.66667H44.6667V3.5Z" fill="#665130"/>
<path d="M49 3.5H46.8334V5.66667H49V3.5Z" fill="#665130"/>
<path d="M53.3333 3.5H51.1666V5.66667H53.3333V3.5Z" fill="#665130"/>
<path d="M55.5 3.5H53.3334V5.66667H55.5V3.5Z" fill="#665130"/>
<path d="M57.6667 3.5H55.5V5.66667H57.6667V3.5Z" fill="#665130"/>
<path d="M59.8333 3.5H57.6666V5.66667H59.8333V3.5Z" fill="#665130"/>
<path d="M62 3.5H59.8334V5.66667H62V3.5Z" fill="#665130"/>
<path d="M64.1667 3.5H62V5.66667H64.1667V3.5Z" fill="#665130"/>
<path d="M66.3334 3.5H64.1667V5.66667H66.3334V3.5Z" fill="#665130"/>
<path d="M5.66667 5.66602H3.5V7.83268H5.66667V5.66602Z" fill="#665130"/>
<path d="M18.6667 5.66602H16.5V7.83268H18.6667V5.66602Z" fill="#665130"/>
<path d="M25.1667 5.66602H23V7.83268H25.1667V5.66602Z" fill="#665130"/>
<path d="M29.5 5.66602H27.3334V7.83268H29.5V5.66602Z" fill="#665130"/>
<path d="M38.1667 5.66602H36V7.83268H38.1667V5.66602Z" fill="#665130"/>
<path d="M42.5 5.66602H40.3334V7.83268H42.5V5.66602Z" fill="#665130"/>
<path d="M44.6667 5.66602H42.5V7.83268H44.6667V5.66602Z" fill="#665130"/>
<path d="M49 5.66602H46.8334V7.83268H49V5.66602Z" fill="#665130"/>
<path d="M53.3333 5.66602H51.1666V7.83268H53.3333V5.66602Z" fill="#665130"/>
<path d="M66.3334 5.66602H64.1667V7.83268H66.3334V5.66602Z" fill="#665130"/>
<path d="M5.66667 7.83398H3.5V10.0007H5.66667V7.83398Z" fill="#665130"/>
<path d="M10 7.83398H7.83337V10.0007H10V7.83398Z" fill="#665130"/>
<path d="M12.1667 7.83398H10V10.0007H12.1667V7.83398Z" fill="#665130"/>
<path d="M14.3333 7.83398H12.1666V10.0007H14.3333V7.83398Z" fill="#665130"/>
<path d="M18.6667 7.83398H16.5V10.0007H18.6667V7.83398Z" fill="#665130"/>
<path d="M23 7.83398H20.8334V10.0007H23V7.83398Z" fill="#665130"/>
<path d="M25.1667 7.83398H23V10.0007H25.1667V7.83398Z" fill="#665130"/>
<path d="M31.6667 7.83398H29.5V10.0007H31.6667V7.83398Z" fill="#665130"/>
<path d="M33.8333 7.83398H31.6666V10.0007H33.8333V7.83398Z" fill="#665130"/>
<path d="M42.5 7.83398H40.3334V10.0007H42.5V7.83398Z" fill="#665130"/>
<path d="M44.6667 7.83398H42.5V10.0007H44.6667V7.83398Z" fill="#665130"/>
<path d="M53.3333 7.83398H51.1666V10.0007H53.3333V7.83398Z" fill="#665130"/>
<path d="M57.6667 7.83398H55.5V10.0007H57.6667V7.83398Z" fill="#665130"/>
<path d="M59.8333 7.83398H57.6666V10.0007H59.8333V7.83398Z" fill="#665130"/>
<path d="M62 7.83398H59.8334V10.0007H62V7.83398Z" fill="#665130"/>
<path d="M66.3334 7.83398H64.1667V10.0007H66.3334V7.83398Z" fill="#665130"/>
<path d="M5.66667 10H3.5V12.1667H5.66667V10Z" fill="#665130"/>
<path d="M10 10H7.83337V12.1667H10V10Z" fill="#665130"/>
<path d="M12.1667 10H10V12.1667H12.1667V10Z" fill="#665130"/>
<path d="M14.3333 10H12.1666V12.1667H14.3333V10Z" fill="#665130"/>
<path d="M18.6667 10H16.5V12.1667H18.6667V10Z" fill="#665130"/>
<path d="M25.1667 10H23V12.1667H25.1667V10Z" fill="#665130"/>
<path d="M27.3333 10H25.1666V12.1667H27.3333V10Z" fill="#665130"/>
<path d="M29.5 10H27.3334V12.1667H29.5V10Z" fill="#665130"/>
<path d="M38.1667 10H36V12.1667H38.1667V10Z" fill="#665130"/>
<path d="M40.3333 10H38.1666V12.1667H40.3333V10Z" fill="#665130"/>
<path d="M49 10H46.8334V12.1667H49V10Z" fill="#665130"/>
<path d="M53.3333 10H51.1666V12.1667H53.3333V10Z" fill="#665130"/>
<path d="M57.6667 10H55.5V12.1667H57.6667V10Z" fill="#665130"/>
<path d="M59.8333 10H57.6666V12.1667H59.8333V10Z" fill="#665130"/>
<path d="M62 10H59.8334V12.1667H62V10Z" fill="#665130"/>
<path d="M66.3334 10H64.1667V12.1667H66.3334V10Z" fill="#665130"/>
<path d="M5.66667 12.166H3.5V14.3327H5.66667V12.166Z" fill="#665130"/>
<path d="M10 12.166H7.83337V14.3327H10V12.166Z" fill="#665130"/>
<path d="M12.1667 12.166H10V14.3327H12.1667V12.166Z" fill="#665130"/>
<path d="M14.3333 12.166H12.1666V14.3327H14.3333V12.166Z" fill="#665130"/>
<path d="M18.6667 12.166H16.5V14.3327H18.6667V12.166Z" fill="#665130"/>
<path d="M25.1667 12.166H23V14.3327H25.1667V12.166Z" fill="#665130"/>
<path d="M31.6667 12.166H29.5V14.3327H31.6667V12.166Z" fill="#665130"/>
<path d="M38.1667 12.166H36V14.3327H38.1667V12.166Z" fill="#665130"/>
<path d="M40.3333 12.166H38.1666V14.3327H40.3333V12.166Z" fill="#665130"/>
<path d="M42.5 12.166H40.3334V14.3327H42.5V12.166Z" fill="#665130"/>
<path d="M49 12.166H46.8334V14.3327H49V12.166Z" fill="#665130"/>
<path d="M53.3333 12.166H51.1666V14.3327H53.3333V12.166Z" fill="#665130"/>
<path d="M57.6667 12.166H55.5V14.3327H57.6667V12.166Z" fill="#665130"/>
<path d="M59.8333 12.166H57.6666V14.3327H59.8333V12.166Z" fill="#665130"/>
<path d="M62 12.166H59.8334V14.3327H62V12.166Z" fill="#665130"/>
<path d="M66.3334 12.166H64.1667V14.3327H66.3334V12.166Z" fill="#665130"/>
<path d="M5.66667 14.334H3.5V16.5007H5.66667V14.334Z" fill="#665130"/>
<path d="M18.6667 14.334H16.5V16.5007H18.6667V14.334Z" fill="#665130"/>
<path d="M23 14.334H20.8334V16.5007H23V14.334Z" fill="#665130"/>
<path d="M27.3333 14.334H25.1666V16.5007H27.3333V14.334Z" fill="#665130"/>
<path d="M29.5 14.334H27.3334V16.5007H29.5V14.334Z" fill="#665130"/>
<path d="M31.6667 14.334H29.5V16.5007H31.6667V14.334Z" fill="#665130"/>
<path d="M33.8333 14.334H31.6666V16.5007H33.8333V14.334Z" fill="#665130"/>
<path d="M36 14.334H33.8334V16.5007H36V14.334Z" fill="#665130"/>
<path d="M40.3333 14.334H38.1666V16.5007H40.3333V14.334Z" fill="#665130"/>
<path d="M42.5 14.334H40.3334V16.5007H42.5V14.334Z" fill="#665130"/>
<path d="M44.6667 14.334H42.5V16.5007H44.6667V14.334Z" fill="#665130"/>
<path d="M46.8333 14.334H44.6666V16.5007H46.8333V14.334Z" fill="#665130"/>
<path d="M53.3333 14.334H51.1666V16.5007H53.3333V14.334Z" fill="#665130"/>
<path d="M66.3334 14.334H64.1667V16.5007H66.3334V14.334Z" fill="#665130"/>
<path d="M5.66667 16.5H3.5V18.6667H5.66667V16.5Z" fill="#665130"/>
<path d="M7.83329 16.5H5.66663V18.6667H7.83329V16.5Z" fill="#665130"/>
<path d="M10 16.5H7.83337V18.6667H10V16.5Z" fill="#665130"/>
<path d="M12.1667 16.5H10V18.6667H12.1667V16.5Z" fill="#665130"/>
<path d="M14.3333 16.5H12.1666V18.6667H14.3333V16.5Z" fill="#665130"/>
<path d="M16.5 16.5H14.3334V18.6667H16.5V16.5Z" fill="#665130"/>
<path d="M18.6667 16.5H16.5V18.6667H18.6667V16.5Z" fill="#665130"/>
<path d="M23 16.5H20.8334V18.6667H23V16.5Z" fill="#665130"/>
<path d="M27.3333 16.5H25.1666V18.6667H27.3333V16.5Z" fill="#665130"/>
<path d="M31.6667 16.5H29.5V18.6667H31.6667V16.5Z" fill="#665130"/>
<path d="M36 16.5H33.8334V18.6667H36V16.5Z" fill="#665130"/>
<path d="M40.3333 16.5H38.1666V18.6667H40.3333V16.5Z" fill="#665130"/>
<path d="M44.6667 16.5H42.5V18.6667H44.6667V16.5Z" fill="#665130"/>
<path d="M49 16.5H46.8334V18.6667H49V16.5Z" fill="#665130"/>
<path d="M53.3333 16.5H51.1666V18.6667H53.3333V16.5Z" fill="#665130"/>
<path d="M55.5 16.5H53.3334V18.6667H55.5V16.5Z" fill="#665130"/>
<path d="M57.6667 16.5H55.5V18.6667H57.6667V16.5Z" fill="#665130"/>
<path d="M59.8333 16.5H57.6666V18.6667H59.8333V16.5Z" fill="#665130"/>
<path d="M62 16.5H59.8334V18.6667H62V16.5Z" fill="#665130"/>
<path d="M64.1667 16.5H62V18.6667H64.1667V16.5Z" fill="#665130"/>
<path d="M66.3334 16.5H64.1667V18.6667H66.3334V16.5Z" fill="#665130"/>
<path d="M25.1667 18.666H23V20.8327H25.1667V18.666Z" fill="#665130"/>
<path d="M33.8333 18.666H31.6666V20.8327H33.8333V18.666Z" fill="#665130"/>
<path d="M42.5 18.666H40.3334V20.8327H42.5V18.666Z" fill="#665130"/>
<path d="M46.8333 18.666H44.6666V20.8327H46.8333V18.666Z" fill="#665130"/>
<path d="M49 18.666H46.8334V20.8327H49V18.666Z" fill="#665130"/>
<path d="M5.66667 20.834H3.5V23.0007H5.66667V20.834Z" fill="#665130"/>
<path d="M10 20.834H7.83337V23.0007H10V20.834Z" fill="#665130"/>
<path d="M18.6667 20.834H16.5V23.0007H18.6667V20.834Z" fill="#665130"/>
<path d="M20.8333 20.834H18.6666V23.0007H20.8333V20.834Z" fill="#665130"/>
<path d="M25.1667 20.834H23V23.0007H25.1667V20.834Z" fill="#665130"/>
<path d="M27.3333 20.834H25.1666V23.0007H27.3333V20.834Z" fill="#665130"/>
<path d="M29.5 20.834H27.3334V23.0007H29.5V20.834Z" fill="#665130"/>
<path d="M33.8333 20.834H31.6666V23.0007H33.8333V20.834Z" fill="#665130"/>
<path d="M38.1667 20.834H36V23.0007H38.1667V20.834Z" fill="#665130"/>
<path d="M40.3333 20.834H38.1666V23.0007H40.3333V20.834Z" fill="#665130"/>
<path d="M44.6667 20.834H42.5V23.0007H44.6667V20.834Z" fill="#665130"/>
<path d="M46.8333 20.834H44.6666V23.0007H46.8333V20.834Z" fill="#665130"/>
<path d="M49 20.834H46.8334V23.0007H49V20.834Z" fill="#665130"/>
<path d="M55.5 20.834H53.3334V23.0007H55.5V20.834Z" fill="#665130"/>
<path d="M62 20.834H59.8334V23.0007H62V20.834Z" fill="#665130"/>
<path d="M66.3334 20.834H64.1667V23.0007H66.3334V20.834Z" fill="#665130"/>
<path d="M5.66667 23H3.5V25.1667H5.66667V23Z" fill="#665130"/>
<path d="M12.1667 23H10V25.1667H12.1667V23Z" fill="#665130"/>
<path d="M16.5 23H14.3334V25.1667H16.5V23Z" fill="#665130"/>
<path d="M20.8333 23H18.6666V25.1667H20.8333V23Z" fill="#665130"/>
<path d="M23 23H20.8334V25.1667H23V23Z" fill="#665130"/>
<path d="M25.1667 23H23V25.1667H25.1667V23Z" fill="#665130"/>
<path d="M29.5 23H27.3334V25.1667H29.5V23Z" fill="#665130"/>
<path d="M40.3333 23H38.1666V25.1667H40.3333V23Z" fill="#665130"/>
<path d="M44.6667 23H42.5V25.1667H44.6667V23Z" fill="#665130"/>
<path d="M46.8333 23H44.6666V25.1667H46.8333V23Z" fill="#665130"/>
<path d="M53.3333 23H51.1666V25.1667H53.3333V23Z" fill="#665130"/>
<path d="M57.6667 23H55.5V25.1667H57.6667V23Z" fill="#665130"/>
<path d="M59.8333 23H57.6666V25.1667H59.8333V23Z" fill="#665130"/>
<path d="M5.66667 25.166H3.5V27.3327H5.66667V25.166Z" fill="#665130"/>
<path d="M10 25.166H7.83337V27.3327H10V25.166Z" fill="#665130"/>
<path d="M14.3333 25.166H12.1666V27.3327H14.3333V25.166Z" fill="#665130"/>
<path d="M18.6667 25.166H16.5V27.3327H18.6667V25.166Z" fill="#665130"/>
<path d="M20.8333 25.166H18.6666V27.3327H20.8333V25.166Z" fill="#665130"/>
<path d="M27.3333 25.166H25.1666V27.3327H27.3333V25.166Z" fill="#665130"/>
<path d="M29.5 25.166H27.3334V27.3327H29.5V25.166Z" fill="#665130"/>
<path d="M33.8333 25.166H31.6666V27.3327H33.8333V25.166Z" fill="#665130"/>
<path d="M36 25.166H33.8334V27.3327H36V25.166Z" fill="#665130"/>
<path d="M40.3333 25.166H38.1666V27.3327H40.3333V25.166Z" fill="#665130"/>
<path d="M53.3333 25.166H51.1666V27.3327H53.3333V25.166Z" fill="#665130"/>
<path d="M55.5 25.166H53.3334V27.3327H55.5V25.166Z" fill="#665130"/>
<path d="M66.3334 25.166H64.1667V27.3327H66.3334V25.166Z" fill="#665130"/>
<path d="M5.66667 27.334H3.5V29.5007H5.66667V27.334Z" fill="#665130"/>
<path d="M7.83329 27.334H5.66663V29.5007H7.83329V27.334Z" fill="#665130"/>
<path d="M10 27.334H7.83337V29.5007H10V27.334Z" fill="#665130"/>
<path d="M23 27.334H20.8334V29.5007H23V27.334Z" fill="#665130"/>
<path d="M25.1667 27.334H23V29.5007H25.1667V27.334Z" fill="#665130"/>
<path d="M36 27.334H33.8334V29.5007H36V27.334Z" fill="#665130"/>
<path d="M38.1667 27.334H36V29.5007H38.1667V27.334Z" fill="#665130"/>
<path d="M40.3333 27.334H38.1666V29.5007H40.3333V27.334Z" fill="#665130"/>
<path d="M42.5 27.334H40.3334V29.5007H42.5V27.334Z" fill="#665130"/>
<path d="M46.8333 27.334H44.6666V29.5007H46.8333V27.334Z" fill="#665130"/>
<path d="M49 27.334H46.8334V29.5007H49V27.334Z" fill="#665130"/>
<path d="M51.1667 27.334H49V29.5007H51.1667V27.334Z" fill="#665130"/>
<path d="M53.3333 27.334H51.1666V29.5007H53.3333V27.334Z" fill="#665130"/>
<path d="M55.5 27.334H53.3334V29.5007H55.5V27.334Z" fill="#665130"/>
<path d="M59.8333 27.334H57.6666V29.5007H59.8333V27.334Z" fill="#665130"/>
<path d="M64.1667 27.334H62V29.5007H64.1667V27.334Z" fill="#665130"/>
<path d="M66.3334 27.334H64.1667V29.5007H66.3334V27.334Z" fill="#665130"/>
<path d="M5.66667 29.5H3.5V31.6667H5.66667V29.5Z" fill="#665130"/>
<path d="M10 29.5H7.83337V31.6667H10V29.5Z" fill="#665130"/>
<path d="M12.1667 29.5H10V31.6667H12.1667V29.5Z" fill="#665130"/>
<path d="M14.3333 29.5H12.1666V31.6667H14.3333V29.5Z" fill="#665130"/>
<path d="M18.6667 29.5H16.5V31.6667H18.6667V29.5Z" fill="#665130"/>
<path d="M27.3333 29.5H25.1666V31.6667H27.3333V29.5Z" fill="#665130"/>
<path d="M33.8333 29.5H31.6666V31.6667H33.8333V29.5Z" fill="#665130"/>
<path d="M36 29.5H33.8334V31.6667H36V29.5Z" fill="#665130"/>
<path d="M46.8333 29.5H44.6666V31.6667H46.8333V29.5Z" fill="#665130"/>
<path d="M51.1667 29.5H49V31.6667H51.1667V29.5Z" fill="#665130"/>
<path d="M53.3333 29.5H51.1666V31.6667H53.3333V29.5Z" fill="#665130"/>
<path d="M57.6667 29.5H55.5V31.6667H57.6667V29.5Z" fill="#665130"/>
<path d="M59.8333 29.5H57.6666V31.6667H59.8333V29.5Z" fill="#665130"/>
<path d="M62 29.5H59.8334V31.6667H62V29.5Z" fill="#665130"/>
<path d="M66.3334 29.5H64.1667V31.6667H66.3334V29.5Z" fill="#665130"/>
<path d="M5.66667 31.666H3.5V33.8327H5.66667V31.666Z" fill="#665130"/>
<path d="M7.83329 31.666H5.66663V33.8327H7.83329V31.666Z" fill="#665130"/>
<path d="M10 31.666H7.83337V33.8327H10V31.666Z" fill="#665130"/>
<path d="M16.5 31.666H14.3334V33.8327H16.5V31.666Z" fill="#665130"/>
<path d="M23 31.666H20.8334V33.8327H23V31.666Z" fill="#665130"/>
<path d="M29.5 31.666H27.3334V33.8327H29.5V31.666Z" fill="#665130"/>
<path d="M33.8333 31.666H31.6666V33.8327H33.8333V31.666Z" fill="#665130"/>
<path d="M36 31.666H33.8334V33.8327H36V31.666Z" fill="#665130"/>
<path d="M44.6667 31.666H42.5V33.8327H44.6667V31.666Z" fill="#665130"/>
<path d="M51.1667 31.666H49V33.8327H51.1667V31.666Z" fill="#665130"/>
<path d="M53.3333 31.666H51.1666V33.8327H53.3333V31.666Z" fill="#665130"/>
<path d="M59.8333 31.666H57.6666V33.8327H59.8333V31.666Z" fill="#665130"/>
<path d="M10 33.834H7.83337V36.0007H10V33.834Z" fill="#665130"/>
<path d="M12.1667 33.834H10V36.0007H12.1667V33.834Z" fill="#665130"/>
<path d="M14.3333 33.834H12.1666V36.0007H14.3333V33.834Z" fill="#665130"/>
<path d="M18.6667 33.834H16.5V36.0007H18.6667V33.834Z" fill="#665130"/>
<path d="M23 33.834H20.8334V36.0007H23V33.834Z" fill="#665130"/>
<path d="M27.3333 33.834H25.1666V36.0007H27.3333V33.834Z" fill="#665130"/>
<path d="M31.6667 33.834H29.5V36.0007H31.6667V33.834Z" fill="#665130"/>
<path d="M38.1667 33.834H36V36.0007H38.1667V33.834Z" fill="#665130"/>
<path d="M46.8333 33.834H44.6666V36.0007H46.8333V33.834Z" fill="#665130"/>
<path d="M49 33.834H46.8334V36.0007H49V33.834Z" fill="#665130"/>
<path d="M53.3333 33.834H51.1666V36.0007H53.3333V33.834Z" fill="#665130"/>
<path d="M55.5 33.834H53.3334V36.0007H55.5V33.834Z" fill="#665130"/>
<path d="M64.1667 33.834H62V36.0007H64.1667V33.834Z" fill="#665130"/>
<path d="M5.66667 36H3.5V38.1667H5.66667V36Z" fill="#665130"/>
<path d="M10 36H7.83337V38.1667H10V36Z" fill="#665130"/>
<path d="M14.3333 36H12.1666V38.1667H14.3333V36Z" fill="#665130"/>
<path d="M20.8333 36H18.6666V38.1667H20.8333V36Z" fill="#665130"/>
<path d="M25.1667 36H23V38.1667H25.1667V36Z" fill="#665130"/>
<path d="M27.3333 36H25.1666V38.1667H27.3333V36Z" fill="#665130"/>
<path d="M29.5 36H27.3334V38.1667H29.5V36Z" fill="#665130"/>
<path d="M31.6667 36H29.5V38.1667H31.6667V36Z" fill="#665130"/>
<path d="M33.8333 36H31.6666V38.1667H33.8333V36Z" fill="#665130"/>
<path d="M44.6667 36H42.5V38.1667H44.6667V36Z" fill="#665130"/>
<path d="M46.8333 36H44.6666V38.1667H46.8333V36Z" fill="#665130"/>
<path d="M49 36H46.8334V38.1667H49V36Z" fill="#665130"/>
<path d="M53.3333 36H51.1666V38.1667H53.3333V36Z" fill="#665130"/>
<path d="M55.5 36H53.3334V38.1667H55.5V36Z" fill="#665130"/>
<path d="M66.3334 36H64.1667V38.1667H66.3334V36Z" fill="#665130"/>
<path d="M7.83329 38.166H5.66663V40.3327H7.83329V38.166Z" fill="#665130"/>
<path d="M18.6667 38.166H16.5V40.3327H18.6667V38.166Z" fill="#665130"/>
<path d="M20.8333 38.166H18.6666V40.3327H20.8333V38.166Z" fill="#665130"/>
<path d="M31.6667 38.166H29.5V40.3327H31.6667V38.166Z" fill="#665130"/>
<path d="M33.8333 38.166H31.6666V40.3327H33.8333V38.166Z" fill="#665130"/>
<path d="M38.1667 38.166H36V40.3327H38.1667V38.166Z" fill="#665130"/>
<path d="M40.3333 38.166H38.1666V40.3327H40.3333V38.166Z" fill="#665130"/>
<path d="M46.8333 38.166H44.6666V40.3327H46.8333V38.166Z" fill="#665130"/>
<path d="M51.1667 38.166H49V40.3327H51.1667V38.166Z" fill="#665130"/>
<path d="M55.5 38.166H53.3334V40.3327H55.5V38.166Z" fill="#665130"/>
<path d="M57.6667 38.166H55.5V40.3327H57.6667V38.166Z" fill="#665130"/>
<path d="M59.8333 38.166H57.6666V40.3327H59.8333V38.166Z" fill="#665130"/>
<path d="M62 38.166H59.8334V40.3327H62V38.166Z" fill="#665130"/>
<path d="M66.3334 38.166H64.1667V40.3327H66.3334V38.166Z" fill="#665130"/>
<path d="M12.1667 40.334H10V42.5007H12.1667V40.334Z" fill="#665130"/>
<path d="M14.3333 40.334H12.1666V42.5007H14.3333V40.334Z" fill="#665130"/>
<path d="M25.1667 40.334H23V42.5007H25.1667V40.334Z" fill="#665130"/>
<path d="M40.3333 40.334H38.1666V42.5007H40.3333V40.334Z" fill="#665130"/>
<path d="M44.6667 40.334H42.5V42.5007H44.6667V40.334Z" fill="#665130"/>
<path d="M46.8333 40.334H44.6666V42.5007H46.8333V40.334Z" fill="#665130"/>
<path d="M51.1667 40.334H49V42.5007H51.1667V40.334Z" fill="#665130"/>
<path d="M53.3333 40.334H51.1666V42.5007H53.3333V40.334Z" fill="#665130"/>
<path d="M55.5 40.334H53.3334V42.5007H55.5V40.334Z" fill="#665130"/>
<path d="M59.8333 40.334H57.6666V42.5007H59.8333V40.334Z" fill="#665130"/>
<path d="M64.1667 40.334H62V42.5007H64.1667V40.334Z" fill="#665130"/>
<path d="M5.66667 42.5H3.5V44.6667H5.66667V42.5Z" fill="#665130"/>
<path d="M7.83329 42.5H5.66663V44.6667H7.83329V42.5Z" fill="#665130"/>
<path d="M14.3333 42.5H12.1666V44.6667H14.3333V42.5Z" fill="#665130"/>
<path d="M16.5 42.5H14.3334V44.6667H16.5V42.5Z" fill="#665130"/>
<path d="M18.6667 42.5H16.5V44.6667H18.6667V42.5Z" fill="#665130"/>
<path d="M20.8333 42.5H18.6666V44.6667H20.8333V42.5Z" fill="#665130"/>
<path d="M25.1667 42.5H23V44.6667H25.1667V42.5Z" fill="#665130"/>
<path d="M27.3333 42.5H25.1666V44.6667H27.3333V42.5Z" fill="#665130"/>
<path d="M29.5 42.5H27.3334V44.6667H29.5V42.5Z" fill="#665130"/>
<path d="M33.8333 42.5H31.6666V44.6667H33.8333V42.5Z" fill="#665130"/>
<path d="M36 42.5H33.8334V44.6667H36V42.5Z" fill="#665130"/>
<path d="M40.3333 42.5H38.1666V44.6667H40.3333V42.5Z" fill="#665130"/>
<path d="M44.6667 42.5H42.5V44.6667H44.6667V42.5Z" fill="#665130"/>
<path d="M46.8333 42.5H44.6666V44.6667H46.8333V42.5Z" fill="#665130"/>
<path d="M53.3333 42.5H51.1666V44.6667H53.3333V42.5Z" fill="#665130"/>
<path d="M12.1667 44.666H10V46.8327H12.1667V44.666Z" fill="#665130"/>
<path d="M16.5 44.666H14.3334V46.8327H16.5V44.666Z" fill="#665130"/>
<path d="M20.8333 44.666H18.6666V46.8327H20.8333V44.666Z" fill="#665130"/>
<path d="M23 44.666H20.8334V46.8327H23V44.666Z" fill="#665130"/>
<path d="M25.1667 44.666H23V46.8327H25.1667V44.666Z" fill="#665130"/>
<path d="M29.5 44.666H27.3334V46.8327H29.5V44.666Z" fill="#665130"/>
<path d="M36 44.666H33.8334V46.8327H36V44.666Z" fill="#665130"/>
<path d="M38.1667 44.666H36V46.8327H38.1667V44.666Z" fill="#665130"/>
<path d="M40.3333 44.666H38.1666V46.8327H40.3333V44.666Z" fill="#665130"/>
<path d="M42.5 44.666H40.3334V46.8327H42.5V44.666Z" fill="#665130"/>
<path d="M46.8333 44.666H44.6666V46.8327H46.8333V44.666Z" fill="#665130"/>
<path d="M49 44.666H46.8334V46.8327H49V44.666Z" fill="#665130"/>
<path d="M53.3333 44.666H51.1666V46.8327H53.3333V44.666Z" fill="#665130"/>
<path d="M55.5 44.666H53.3334V46.8327H55.5V44.666Z" fill="#665130"/>
<path d="M64.1667 44.666H62V46.8327H64.1667V44.666Z" fill="#665130"/>
<path d="M5.66667 46.834H3.5V49.0007H5.66667V46.834Z" fill="#665130"/>
<path d="M7.83329 46.834H5.66663V49.0007H7.83329V46.834Z" fill="#665130"/>
<path d="M10 46.834H7.83337V49.0007H10V46.834Z" fill="#665130"/>
<path d="M12.1667 46.834H10V49.0007H12.1667V46.834Z" fill="#665130"/>
<path d="M18.6667 46.834H16.5V49.0007H18.6667V46.834Z" fill="#665130"/>
<path d="M20.8333 46.834H18.6666V49.0007H20.8333V46.834Z" fill="#665130"/>
<path d="M23 46.834H20.8334V49.0007H23V46.834Z" fill="#665130"/>
<path d="M25.1667 46.834H23V49.0007H25.1667V46.834Z" fill="#665130"/>
<path d="M33.8333 46.834H31.6666V49.0007H33.8333V46.834Z" fill="#665130"/>
<path d="M36 46.834H33.8334V49.0007H36V46.834Z" fill="#665130"/>
<path d="M40.3333 46.834H38.1666V49.0007H40.3333V46.834Z" fill="#665130"/>
<path d="M46.8333 46.834H44.6666V49.0007H46.8333V46.834Z" fill="#665130"/>
<path d="M49 46.834H46.8334V49.0007H49V46.834Z" fill="#665130"/>
<path d="M51.1667 46.834H49V49.0007H51.1667V46.834Z" fill="#665130"/>
<path d="M53.3333 46.834H51.1666V49.0007H53.3333V46.834Z" fill="#665130"/>
<path d="M55.5 46.834H53.3334V49.0007H55.5V46.834Z" fill="#665130"/>
<path d="M57.6667 46.834H55.5V49.0007H57.6667V46.834Z" fill="#665130"/>
<path d="M64.1667 46.834H62V49.0007H64.1667V46.834Z" fill="#665130"/>
<path d="M66.3334 46.834H64.1667V49.0007H66.3334V46.834Z" fill="#665130"/>
<path d="M23 49H20.8334V51.1667H23V49Z" fill="#665130"/>
<path d="M25.1667 49H23V51.1667H25.1667V49Z" fill="#665130"/>
<path d="M31.6667 49H29.5V51.1667H31.6667V49Z" fill="#665130"/>
<path d="M33.8333 49H31.6666V51.1667H33.8333V49Z" fill="#665130"/>
<path d="M36 49H33.8334V51.1667H36V49Z" fill="#665130"/>
<path d="M46.8333 49H44.6666V51.1667H46.8333V49Z" fill="#665130"/>
<path d="M49 49H46.8334V51.1667H49V49Z" fill="#665130"/>
<path d="M57.6667 49H55.5V51.1667H57.6667V49Z" fill="#665130"/>
<path d="M5.66667 51.166H3.5V53.3327H5.66667V51.166Z" fill="#665130"/>
<path d="M7.83329 51.166H5.66663V53.3327H7.83329V51.166Z" fill="#665130"/>
<path d="M10 51.166H7.83337V53.3327H10V51.166Z" fill="#665130"/>
<path d="M12.1667 51.166H10V53.3327H12.1667V51.166Z" fill="#665130"/>
<path d="M14.3333 51.166H12.1666V53.3327H14.3333V51.166Z" fill="#665130"/>
<path d="M16.5 51.166H14.3334V53.3327H16.5V51.166Z" fill="#665130"/>
<path d="M18.6667 51.166H16.5V53.3327H18.6667V51.166Z" fill="#665130"/>
<path d="M23 51.166H20.8334V53.3327H23V51.166Z" fill="#665130"/>
<path d="M25.1667 51.166H23V53.3327H25.1667V51.166Z" fill="#665130"/>
<path d="M27.3333 51.166H25.1666V53.3327H27.3333V51.166Z" fill="#665130"/>
<path d="M38.1667 51.166H36V53.3327H38.1667V51.166Z" fill="#665130"/>
<path d="M40.3333 51.166H38.1666V53.3327H40.3333V51.166Z" fill="#665130"/>
<path d="M46.8333 51.166H44.6666V53.3327H46.8333V51.166Z" fill="#665130"/>
<path d="M49 51.166H46.8334V53.3327H49V51.166Z" fill="#665130"/>
<path d="M53.3333 51.166H51.1666V53.3327H53.3333V51.166Z" fill="#665130"/>
<path d="M57.6667 51.166H55.5V53.3327H57.6667V51.166Z" fill="#665130"/>
<path d="M66.3334 51.166H64.1667V53.3327H66.3334V51.166Z" fill="#665130"/>
<path d="M5.66667 53.334H3.5V55.5007H5.66667V53.334Z" fill="#665130"/>
<path d="M18.6667 53.334H16.5V55.5007H18.6667V53.334Z" fill="#665130"/>
<path d="M27.3333 53.334H25.1666V55.5007H27.3333V53.334Z" fill="#665130"/>
<path d="M31.6667 53.334H29.5V55.5007H31.6667V53.334Z" fill="#665130"/>
<path d="M33.8333 53.334H31.6666V55.5007H33.8333V53.334Z" fill="#665130"/>
<path d="M44.6667 53.334H42.5V55.5007H44.6667V53.334Z" fill="#665130"/>
<path d="M49 53.334H46.8334V55.5007H49V53.334Z" fill="#665130"/>
<path d="M57.6667 53.334H55.5V55.5007H57.6667V53.334Z" fill="#665130"/>
<path d="M62 53.334H59.8334V55.5007H62V53.334Z" fill="#665130"/>
<path d="M66.3334 53.334H64.1667V55.5007H66.3334V53.334Z" fill="#665130"/>
<path d="M5.66667 55.5H3.5V57.6667H5.66667V55.5Z" fill="#665130"/>
<path d="M10 55.5H7.83337V57.6667H10V55.5Z" fill="#665130"/>
<path d="M12.1667 55.5H10V57.6667H12.1667V55.5Z" fill="#665130"/>
<path d="M14.3333 55.5H12.1666V57.6667H14.3333V55.5Z" fill="#665130"/>
<path d="M18.6667 55.5H16.5V57.6667H18.6667V55.5Z" fill="#665130"/>
<path d="M27.3333 55.5H25.1666V57.6667H27.3333V55.5Z" fill="#665130"/>
<path d="M33.8333 55.5H31.6666V57.6667H33.8333V55.5Z" fill="#665130"/>
<path d="M38.1667 55.5H36V57.6667H38.1667V55.5Z" fill="#665130"/>
<path d="M42.5 55.5H40.3334V57.6667H42.5V55.5Z" fill="#665130"/>
<path d="M44.6667 55.5H42.5V57.6667H44.6667V55.5Z" fill="#665130"/>
<path d="M46.8333 55.5H44.6666V57.6667H46.8333V55.5Z" fill="#665130"/>
<path d="M49 55.5H46.8334V57.6667H49V55.5Z" fill="#665130"/>
<path d="M51.1667 55.5H49V57.6667H51.1667V55.5Z" fill="#665130"/>
<path d="M53.3333 55.5H51.1666V57.6667H53.3333V55.5Z" fill="#665130"/>
<path d="M55.5 55.5H53.3334V57.6667H55.5V55.5Z" fill="#665130"/>
<path d="M57.6667 55.5H55.5V57.6667H57.6667V55.5Z" fill="#665130"/>
<path d="M59.8333 55.5H57.6666V57.6667H59.8333V55.5Z" fill="#665130"/>
<path d="M64.1667 55.5H62V57.6667H64.1667V55.5Z" fill="#665130"/>
<path d="M5.66667 57.666H3.5V59.8327H5.66667V57.666Z" fill="#665130"/>
<path d="M10 57.666H7.83337V59.8327H10V57.666Z" fill="#665130"/>
<path d="M12.1667 57.666H10V59.8327H12.1667V57.666Z" fill="#665130"/>
<path d="M14.3333 57.666H12.1666V59.8327H14.3333V57.666Z" fill="#665130"/>
<path d="M18.6667 57.666H16.5V59.8327H18.6667V57.666Z" fill="#665130"/>
<path d="M25.1667 57.666H23V59.8327H25.1667V57.666Z" fill="#665130"/>
<path d="M27.3333 57.666H25.1666V59.8327H27.3333V57.666Z" fill="#665130"/>
<path d="M29.5 57.666H27.3334V59.8327H29.5V57.666Z" fill="#665130"/>
<path d="M31.6667 57.666H29.5V59.8327H31.6667V57.666Z" fill="#665130"/>
<path d="M38.1667 57.666H36V59.8327H38.1667V57.666Z" fill="#665130"/>
<path d="M40.3333 57.666H38.1666V59.8327H40.3333V57.666Z" fill="#665130"/>
<path d="M49 57.666H46.8334V59.8327H49V57.666Z" fill="#665130"/>
<path d="M53.3333 57.666H51.1666V59.8327H53.3333V57.666Z" fill="#665130"/>
<path d="M55.5 57.666H53.3334V59.8327H55.5V57.666Z" fill="#665130"/>
<path d="M57.6667 57.666H55.5V59.8327H57.6667V57.666Z" fill="#665130"/>
<path d="M64.1667 57.666H62V59.8327H64.1667V57.666Z" fill="#665130"/>
<path d="M5.66667 59.834H3.5V62.0007H5.66667V59.834Z" fill="#665130"/>
<path d="M10 59.834H7.83337V62.0007H10V59.834Z" fill="#665130"/>
<path d="M12.1667 59.834H10V62.0007H12.1667V59.834Z" fill="#665130"/>
<path d="M14.3333 59.834H12.1666V62.0007H14.3333V59.834Z" fill="#665130"/>
<path d="M18.6667 59.834H16.5V62.0007H18.6667V59.834Z" fill="#665130"/>
<path d="M23 59.834H20.8334V62.0007H23V59.834Z" fill="#665130"/>
<path d="M27.3333 59.834H25.1666V62.0007H27.3333V59.834Z" fill="#665130"/>
<path d="M33.8333 59.834H31.6666V62.0007H33.8333V59.834Z" fill="#665130"/>
<path d="M40.3333 59.834H38.1666V62.0007H40.3333V59.834Z" fill="#665130"/>
<path d="M49 59.834H46.8334V62.0007H49V59.834Z" fill="#665130"/>
<path d="M53.3333 59.834H51.1666V62.0007H53.3333V59.834Z" fill="#665130"/>
<path d="M59.8333 59.834H57.6666V62.0007H59.8333V59.834Z" fill="#665130"/>
<path d="M64.1667 59.834H62V62.0007H64.1667V59.834Z" fill="#665130"/>
<path d="M66.3334 59.834H64.1667V62.0007H66.3334V59.834Z" fill="#665130"/>
<path d="M5.66667 62H3.5V64.1667H5.66667V62Z" fill="#665130"/>
<path d="M18.6667 62H16.5V64.1667H18.6667V62Z" fill="#665130"/>
<path d="M29.5 62H27.3334V64.1667H29.5V62Z" fill="#665130"/>
<path d="M36 62H33.8334V64.1667H36V62Z" fill="#665130"/>
<path d="M38.1667 62H36V64.1667H38.1667V62Z" fill="#665130"/>
<path d="M42.5 62H40.3334V64.1667H42.5V62Z" fill="#665130"/>
<path d="M46.8333 62H44.6666V64.1667H46.8333V62Z" fill="#665130"/>
<path d="M51.1667 62H49V64.1667H51.1667V62Z" fill="#665130"/>
<path d="M57.6667 62H55.5V64.1667H57.6667V62Z" fill="#665130"/>
<path d="M59.8333 62H57.6666V64.1667H59.8333V62Z" fill="#665130"/>
<path d="M62 62H59.8334V64.1667H62V62Z" fill="#665130"/>
<path d="M64.1667 62H62V64.1667H64.1667V62Z" fill="#665130"/>
<path d="M66.3334 62H64.1667V64.1667H66.3334V62Z" fill="#665130"/>
<path d="M5.66667 64.166H3.5V66.3327H5.66667V64.166Z" fill="#665130"/>
<path d="M7.83329 64.166H5.66663V66.3327H7.83329V64.166Z" fill="#665130"/>
<path d="M10 64.166H7.83337V66.3327H10V64.166Z" fill="#665130"/>
<path d="M12.1667 64.166H10V66.3327H12.1667V64.166Z" fill="#665130"/>
<path d="M14.3333 64.166H12.1666V66.3327H14.3333V64.166Z" fill="#665130"/>
<path d="M16.5 64.166H14.3334V66.3327H16.5V64.166Z" fill="#665130"/>
<path d="M18.6667 64.166H16.5V66.3327H18.6667V64.166Z" fill="#665130"/>
<path d="M23 64.166H20.8334V66.3327H23V64.166Z" fill="#665130"/>
<path d="M27.3333 64.166H25.1666V66.3327H27.3333V64.166Z" fill="#665130"/>
<path d="M33.8333 64.166H31.6666V66.3327H33.8333V64.166Z" fill="#665130"/>
<path d="M36 64.166H33.8334V66.3327H36V64.166Z" fill="#665130"/>
<path d="M38.1667 64.166H36V66.3327H38.1667V64.166Z" fill="#665130"/>
<path d="M40.3333 64.166H38.1666V66.3327H40.3333V64.166Z" fill="#665130"/>
<path d="M42.5 64.166H40.3334V66.3327H42.5V64.166Z" fill="#665130"/>
<path d="M51.1667 64.166H49V66.3327H51.1667V64.166Z" fill="#665130"/>
<path d="M55.5 64.166H53.3334V66.3327H55.5V64.166Z" fill="#665130"/>
<path d="M57.6667 64.166H55.5V66.3327H57.6667V64.166Z" fill="#665130"/>
<path d="M66.3334 64.166H64.1667V66.3327H66.3334V64.166Z" fill="#665130"/>
</g>
<defs>
<clipPath id="clip0_415_60">
<rect width="70" height="70" fill="white"/>
</clipPath>
</defs>
</svg>
